<svg width="220" height="62" viewBox="0 0 220 62" fill="none" xmlns="http://www.w3.org/2000/svg">
<rect x="0.136475" width="219.807" height="61.639" rx="11.3389" fill="black"/>
<path fill-rule="evenodd" clip-rule="evenodd" d="M48.314 45.5631C49.5683 43.6497 50.0361 42.6717 50.9928 40.5244C43.9343 37.8456 42.8075 27.7894 49.7809 23.9413C47.6549 21.2624 44.6572 19.7104 41.8296 19.7104C39.7886 19.7104 38.3854 20.242 37.131 20.731C36.068 21.1349 35.1113 21.4963 33.9207 21.4963C32.6451 21.4963 31.5182 21.0924 30.3277 20.6672C29.0308 20.1995 27.6701 19.7104 25.9693 19.7104C22.8015 19.7104 19.4211 21.6452 17.2738 24.9618C14.2548 29.6391 14.7863 38.3984 19.6549 45.882C21.3983 48.5608 23.7369 51.5586 26.7772 51.6011C28.0528 51.6223 28.8819 51.2397 29.7961 50.8357C30.8379 50.368 31.9647 49.8577 33.9419 49.8577C35.9191 49.8365 37.0247 50.368 38.0665 50.8357C38.9594 51.2397 39.7673 51.6223 41.0216 51.6011C44.1044 51.5586 46.5706 48.2419 48.314 45.5631Z" fill="white"/>
<path fill-rule="evenodd" clip-rule="evenodd" d="M41.383 9.0802C41.7232 11.4188 40.7665 13.7363 39.5121 15.3521C38.1727 17.0954 35.8341 18.456 33.5805 18.371C33.1765 16.1174 34.2183 13.8 35.4939 12.248C36.9184 10.5471 39.3208 9.22902 41.383 9.0802Z" fill="white"/>
<path d="M80.2754 27.3933H76.2037V14.199H80.4558C81.7357 14.199 82.8309 14.4631 83.7415 14.9914C84.652 15.5154 85.35 16.2692 85.8353 17.2527C86.3207 18.232 86.5633 19.4045 86.5633 20.7704C86.5633 22.1448 86.3185 23.3281 85.8289 24.3202C85.3392 25.3081 84.6263 26.0683 83.69 26.6009C82.7536 27.1292 81.6155 27.3933 80.2754 27.3933ZM77.8015 25.9759H80.1723C81.2633 25.9759 82.1674 25.7655 82.8846 25.3446C83.6019 24.9237 84.1366 24.3245 84.4888 23.5471C84.841 22.7697 85.0171 21.8441 85.0171 20.7704C85.0171 19.7052 84.8432 18.7882 84.4953 18.0194C84.1474 17.2463 83.6277 16.6536 82.9362 16.2413C82.2447 15.8246 81.3835 15.6163 80.3527 15.6163H77.8015V25.9759ZM92.5259 27.5995C91.6326 27.5995 90.8487 27.3869 90.1744 26.9617C89.5044 26.5365 88.9804 25.9416 88.6024 25.1771C88.2288 24.4126 88.0419 23.5192 88.0419 22.497C88.0419 21.4662 88.2288 20.5664 88.6024 19.7975C88.9804 19.0287 89.5044 18.4317 90.1744 18.0065C90.8487 17.5813 91.6326 17.3687 92.5259 17.3687C93.4193 17.3687 94.201 17.5813 94.871 18.0065C95.5454 18.4317 96.0693 19.0287 96.443 19.7975C96.821 20.5664 97.01 21.4662 97.01 22.497C97.01 23.5192 96.821 24.4126 96.443 25.1771C96.0693 25.9416 95.5454 26.5365 94.871 26.9617C94.201 27.3869 93.4193 27.5995 92.5259 27.5995ZM92.5259 26.2337C93.2046 26.2337 93.7629 26.0597 94.201 25.7118C94.6391 25.3639 94.9634 24.9065 95.1738 24.3395C95.3843 23.7726 95.4895 23.1584 95.4895 22.497C95.4895 21.8355 95.3843 21.2192 95.1738 20.648C94.9634 20.0767 94.6391 19.615 94.201 19.2628C93.7629 18.9106 93.2046 18.7345 92.5259 18.7345C91.8473 18.7345 91.289 18.9106 90.8509 19.2628C90.4128 19.615 90.0885 20.0767 89.8781 20.648C89.6676 21.2192 89.5624 21.8355 89.5624 22.497C89.5624 23.1584 89.6676 23.7726 89.8781 24.3395C90.0885 24.9065 90.4128 25.3639 90.8509 25.7118C91.289 26.0597 91.8473 26.2337 92.5259 26.2337ZM100.705 27.3933L97.6897 17.4976H99.2874L101.426 25.074H101.529L103.643 17.4976H105.266L107.354 25.0482H107.457L109.596 17.4976H111.193L108.178 27.3933H106.683L104.519 19.7911H104.364L102.199 27.3933H100.705ZM114.192 21.4404V27.3933H112.672V17.4976H114.141V19.0438H114.27C114.502 18.5412 114.854 18.1375 115.326 17.8326C115.799 17.5233 116.409 17.3687 117.156 17.3687C117.826 17.3687 118.412 17.5061 118.915 17.781C119.417 18.0516 119.808 18.4639 120.087 19.018C120.366 19.5678 120.506 20.2636 120.506 21.1054V27.3933H118.986V21.2085C118.986 20.4311 118.784 19.8255 118.38 19.3917C117.976 18.9536 117.422 18.7345 116.718 18.7345C116.232 18.7345 115.799 18.8397 115.416 19.0502C115.038 19.2607 114.74 19.5678 114.521 19.9715C114.302 20.3752 114.192 20.8649 114.192 21.4404ZM124.273 14.199V27.3933H122.753V14.199H124.273ZM130.547 27.5995C129.653 27.5995 128.87 27.3869 128.195 26.9617C127.525 26.5365 127.001 25.9416 126.623 25.1771C126.25 24.4126 126.063 23.5192 126.063 22.497C126.063 21.4662 126.25 20.5664 126.623 19.7975C127.001 19.0287 127.525 18.4317 128.195 18.0065C128.87 17.5813 129.653 17.3687 130.547 17.3687C131.44 17.3687 132.222 17.5813 132.892 18.0065C133.566 18.4317 134.09 19.0287 134.464 19.7975C134.842 20.5664 135.031 21.4662 135.031 22.497C135.031 23.5192 134.842 24.4126 134.464 25.1771C134.09 25.9416 133.566 26.5365 132.892 26.9617C132.222 27.3869 131.44 27.5995 130.547 27.5995ZM130.547 26.2337C131.225 26.2337 131.784 26.0597 132.222 25.7118C132.66 25.3639 132.984 24.9065 133.195 24.3395C133.405 23.7726 133.51 23.1584 133.51 22.497C133.51 21.8355 133.405 21.2192 133.195 20.648C132.984 20.0767 132.66 19.615 132.222 19.2628C131.784 18.9106 131.225 18.7345 130.547 18.7345C129.868 18.7345 129.31 18.9106 128.872 19.2628C128.434 19.615 128.109 20.0767 127.899 20.648C127.688 21.2192 127.583 21.8355 127.583 22.497C127.583 23.1584 127.688 23.7726 127.899 24.3395C128.109 24.9065 128.434 25.3639 128.872 25.7118C129.31 26.0597 129.868 26.2337 130.547 26.2337ZM139.732 27.6252C139.105 27.6252 138.536 27.5071 138.025 27.2709C137.514 27.0304 137.108 26.6846 136.807 26.2337C136.507 25.7784 136.356 25.2286 136.356 24.5844C136.356 24.0174 136.468 23.5578 136.691 23.2057C136.915 22.8492 137.213 22.57 137.587 22.3681C137.961 22.1663 138.373 22.0159 138.824 21.9171C139.279 21.8141 139.737 21.7325 140.196 21.6723C140.797 21.595 141.285 21.537 141.659 21.4984C142.037 21.4554 142.311 21.3846 142.483 21.2858C142.659 21.187 142.747 21.0152 142.747 20.7704V20.7188C142.747 20.0832 142.573 19.5892 142.226 19.237C141.882 18.8848 141.36 18.7088 140.66 18.7088C139.934 18.7088 139.365 18.8677 138.953 19.1855C138.54 19.5033 138.25 19.8426 138.083 20.2034L136.64 19.688C136.898 19.0867 137.241 18.6186 137.671 18.2835C138.104 17.9442 138.577 17.708 139.088 17.5749C139.603 17.4374 140.11 17.3687 140.608 17.3687C140.926 17.3687 141.291 17.4074 141.704 17.4847C142.12 17.5577 142.522 17.7102 142.908 17.9421C143.299 18.174 143.624 18.5241 143.881 18.9922C144.139 19.4604 144.268 20.0875 144.268 20.8734V27.3933H142.747V26.0533H142.67C142.567 26.268 142.395 26.4978 142.155 26.7426C141.914 26.9874 141.594 27.1957 141.195 27.3675C140.795 27.5393 140.308 27.6252 139.732 27.6252ZM139.964 26.2594C140.566 26.2594 141.072 26.1413 141.485 25.9051C141.901 25.6689 142.215 25.3639 142.425 24.9902C142.64 24.6166 142.747 24.2236 142.747 23.8113V22.4197C142.683 22.497 142.541 22.5678 142.322 22.6323C142.107 22.6924 141.858 22.7461 141.575 22.7933C141.296 22.8363 141.023 22.8749 140.757 22.9093C140.495 22.9394 140.282 22.9651 140.119 22.9866C139.724 23.0381 139.354 23.1219 139.011 23.2379C138.671 23.3495 138.397 23.5192 138.186 23.7468C137.98 23.9702 137.877 24.2751 137.877 24.6617C137.877 25.19 138.072 25.5894 138.463 25.86C138.858 26.1263 139.359 26.2594 139.964 26.2594ZM150.248 27.5995C149.424 27.5995 148.696 27.3912 148.064 26.9745C147.433 26.5536 146.939 25.9609 146.582 25.1964C146.226 24.4276 146.048 23.5192 146.048 22.4712C146.048 21.4318 146.226 20.5298 146.582 19.7653C146.939 19.0008 147.435 18.4102 148.071 17.9936C148.706 17.577 149.441 17.3687 150.274 17.3687C150.918 17.3687 151.427 17.4761 151.801 17.6908C152.179 17.9013 152.467 18.1418 152.664 18.4124C152.866 18.6787 153.023 18.8977 153.134 19.0695H153.263V14.199H154.784V27.3933H153.315V25.8729H153.134C153.023 26.0533 152.864 26.2809 152.658 26.5558C152.452 26.8264 152.157 27.069 151.775 27.2838C151.393 27.4942 150.884 27.5995 150.248 27.5995ZM150.454 26.2337C151.064 26.2337 151.58 26.0747 152.001 25.7569C152.421 25.4348 152.741 24.9902 152.96 24.4233C153.18 23.8521 153.289 23.1928 153.289 22.4454C153.289 21.7067 153.182 21.0603 152.967 20.5062C152.752 19.9479 152.434 19.5141 152.013 19.2048C151.593 18.8913 151.073 18.7345 150.454 18.7345C149.81 18.7345 149.273 18.8999 148.844 19.2306C148.418 19.557 148.098 20.0016 147.884 20.5642C147.673 21.1226 147.568 21.7496 147.568 22.4454C147.568 23.1498 147.675 23.7898 147.89 24.3653C148.109 24.9366 148.431 25.3918 148.857 25.7311C149.286 26.0661 149.819 26.2337 150.454 26.2337ZM165.839 27.5995C164.946 27.5995 164.162 27.3869 163.488 26.9617C162.818 26.5365 162.294 25.9416 161.916 25.1771C161.542 24.4126 161.355 23.5192 161.355 22.497C161.355 21.4662 161.542 20.5664 161.916 19.7975C162.294 19.0287 162.818 18.4317 163.488 18.0065C164.162 17.5813 164.946 17.3687 165.839 17.3687C166.733 17.3687 167.514 17.5813 168.184 18.0065C168.859 18.4317 169.383 19.0287 169.756 19.7975C170.134 20.5664 170.323 21.4662 170.323 22.497C170.323 23.5192 170.134 24.4126 169.756 25.1771C169.383 25.9416 168.859 26.5365 168.184 26.9617C167.514 27.3869 166.733 27.5995 165.839 27.5995ZM165.839 26.2337C166.518 26.2337 167.076 26.0597 167.514 25.7118C167.952 25.3639 168.277 24.9065 168.487 24.3395C168.698 23.7726 168.803 23.1584 168.803 22.497C168.803 21.8355 168.698 21.2192 168.487 20.648C168.277 20.0767 167.952 19.615 167.514 19.2628C167.076 18.9106 166.518 18.7345 165.839 18.7345C165.161 18.7345 164.602 18.9106 164.164 19.2628C163.726 19.615 163.402 20.0767 163.191 20.648C162.981 21.2192 162.876 21.8355 162.876 22.497C162.876 23.1584 162.981 23.7726 163.191 24.3395C163.402 24.9065 163.726 25.3639 164.164 25.7118C164.602 26.0597 165.161 26.2337 165.839 26.2337ZM173.633 21.4404V27.3933H172.113V17.4976H173.582V19.0438H173.71C173.942 18.5412 174.295 18.1375 174.767 17.8326C175.239 17.5233 175.849 17.3687 176.597 17.3687C177.267 17.3687 177.853 17.5061 178.355 17.781C178.858 18.0516 179.249 18.4639 179.528 19.018C179.807 19.5678 179.947 20.2636 179.947 21.1054V27.3933H178.426V21.2085C178.426 20.4311 178.224 19.8255 177.821 19.3917C177.417 18.9536 176.863 18.7345 176.159 18.7345C175.673 18.7345 175.239 18.8397 174.857 19.0502C174.479 19.2607 174.181 19.5678 173.962 19.9715C173.743 20.3752 173.633 20.8649 173.633 21.4404ZM191.068 17.4976V18.7861H185.94V17.4976H191.068ZM187.435 15.1267H188.955V24.5586C188.955 24.9881 189.017 25.3102 189.142 25.525C189.271 25.7354 189.434 25.8772 189.632 25.9502C189.833 26.0189 190.046 26.0533 190.269 26.0533C190.437 26.0533 190.574 26.0447 190.682 26.0275C190.789 26.006 190.875 25.9888 190.939 25.9759L191.249 27.3418C191.146 27.3804 191.002 27.4191 190.817 27.4577C190.632 27.5007 190.398 27.5222 190.115 27.5222C189.685 27.5222 189.264 27.4298 188.852 27.2451C188.444 27.0604 188.105 26.7791 187.834 26.4012C187.568 26.0232 187.435 25.5464 187.435 24.9709V15.1267ZM194.557 21.4404V27.3933H193.037V14.199H194.557V19.0438H194.686C194.918 18.5327 195.266 18.1268 195.73 17.8261C196.198 17.5212 196.82 17.3687 197.598 17.3687C198.272 17.3687 198.863 17.504 199.37 17.7746C199.876 18.0409 200.269 18.451 200.549 19.0051C200.832 19.5549 200.974 20.255 200.974 21.1054V27.3933H199.453V21.2085C199.453 20.4225 199.249 19.8147 198.841 19.3852C198.438 18.9514 197.877 18.7345 197.16 18.7345C196.662 18.7345 196.215 18.8397 195.82 19.0502C195.429 19.2607 195.12 19.5678 194.892 19.9715C194.669 20.3752 194.557 20.8649 194.557 21.4404ZM207.373 27.5995C206.419 27.5995 205.597 27.389 204.905 26.9681C204.218 26.5429 203.688 25.9502 203.314 25.19C202.945 24.4254 202.76 23.5364 202.76 22.5227C202.76 21.5091 202.945 20.6157 203.314 19.8426C203.688 19.0652 204.207 18.4596 204.873 18.0258C205.543 17.5877 206.325 17.3687 207.218 17.3687C207.734 17.3687 208.243 17.4546 208.745 17.6264C209.248 17.7982 209.705 18.0774 210.117 18.4639C210.53 18.8462 210.858 19.353 211.103 19.9844C211.348 20.6157 211.47 21.3931 211.47 22.3166V22.9608H203.842V21.6466H209.924C209.924 21.0882 209.812 20.59 209.589 20.1519C209.37 19.7138 209.057 19.368 208.648 19.1146C208.245 18.8612 207.768 18.7345 207.218 18.7345C206.613 18.7345 206.089 18.8848 205.646 19.1855C205.208 19.4819 204.871 19.8684 204.635 20.3452C204.399 20.8219 204.28 21.333 204.28 21.8785V22.7547C204.28 23.502 204.409 24.1355 204.667 24.6552C204.929 25.1706 205.292 25.5636 205.756 25.8342C206.22 26.1005 206.759 26.2337 207.373 26.2337C207.772 26.2337 208.133 26.1778 208.455 26.0661C208.782 25.9502 209.063 25.7784 209.299 25.5507C209.535 25.3188 209.718 25.031 209.847 24.6874L211.316 25.0998C211.161 25.598 210.901 26.0361 210.536 26.414C210.171 26.7877 209.72 27.0798 209.183 27.2902C208.646 27.4964 208.043 27.5995 207.373 27.5995Z" fill="#D8D8D8"/>
<path d="M78.027 48.2294H75.0376L79.5925 35.035H83.1874L87.7359 48.2294H84.7465L81.4415 38.0501H81.3384L78.027 48.2294ZM77.8401 43.0431H84.9012V45.2207H77.8401V43.0431ZM88.7409 51.9403V38.3336H91.4468V39.9958H91.5692C91.6895 39.7295 91.8634 39.4589 92.0911 39.184C92.323 38.9049 92.6237 38.6729 92.993 38.4882C93.3667 38.2993 93.8306 38.2048 94.3846 38.2048C95.1062 38.2048 95.7719 38.3937 96.3818 38.7717C96.9917 39.1454 97.4792 39.7102 97.8443 40.4661C98.2093 41.2177 98.3919 42.1605 98.3919 43.2944C98.3919 44.3982 98.2136 45.3302 97.8572 46.0904C97.505 46.8464 97.0239 47.4198 96.414 47.8106C95.8084 48.1972 95.1298 48.3904 94.3782 48.3904C93.8456 48.3904 93.3925 48.3024 93.0188 48.1263C92.6494 47.9502 92.3466 47.729 92.1104 47.4627C91.8742 47.1921 91.6938 46.9194 91.5692 46.6445H91.4855V51.9403H88.7409ZM91.4275 43.2815C91.4275 43.8699 91.5091 44.3832 91.6723 44.8213C91.8355 45.2594 92.0717 45.6008 92.381 45.8456C92.6902 46.0861 93.066 46.2064 93.5084 46.2064C93.9551 46.2064 94.3331 46.084 94.6423 45.8392C94.9516 45.5901 95.1856 45.2465 95.3446 44.8084C95.5078 44.366 95.5894 43.857 95.5894 43.2815C95.5894 42.7103 95.5099 42.2077 95.351 41.7739C95.1921 41.3401 94.958 41.0008 94.6488 40.756C94.3395 40.5112 93.9594 40.3888 93.5084 40.3888C93.0617 40.3888 92.6838 40.5069 92.3745 40.7431C92.0696 40.9794 91.8355 41.3144 91.6723 41.7482C91.5091 42.182 91.4275 42.6931 91.4275 43.2815ZM99.6901 51.9403V38.3336H102.396V39.9958H102.518C102.639 39.7295 102.813 39.4589 103.04 39.184C103.272 38.9049 103.573 38.6729 103.942 38.4882C104.316 38.2993 104.78 38.2048 105.334 38.2048C106.055 38.2048 106.721 38.3937 107.331 38.7717C107.941 39.1454 108.428 39.7102 108.793 40.4661C109.158 41.2177 109.341 42.1605 109.341 43.2944C109.341 44.3982 109.163 45.3302 108.806 46.0904C108.454 46.8464 107.973 47.4198 107.363 47.8106C106.758 48.1972 106.079 48.3904 105.327 48.3904C104.795 48.3904 104.342 48.3024 103.968 48.1263C103.599 47.9502 103.296 47.729 103.06 47.4627C102.823 47.1921 102.643 46.9194 102.518 46.6445H102.435V51.9403H99.6901ZM102.377 43.2815C102.377 43.8699 102.458 44.3832 102.621 44.8213C102.785 45.2594 103.021 45.6008 103.33 45.8456C103.639 46.0861 104.015 46.2064 104.458 46.2064C104.904 46.2064 105.282 46.084 105.591 45.8392C105.901 45.5901 106.135 45.2465 106.294 44.8084C106.457 44.366 106.539 43.857 106.539 43.2815C106.539 42.7103 106.459 42.2077 106.3 41.7739C106.141 41.3401 105.907 41.0008 105.598 40.756C105.289 40.5112 104.909 40.3888 104.458 40.3888C104.011 40.3888 103.633 40.5069 103.324 40.7431C103.019 40.9794 102.785 41.3144 102.621 41.7482C102.458 42.182 102.377 42.6931 102.377 43.2815ZM121.516 38.8297C121.464 38.31 121.243 37.9063 120.852 37.6185C120.461 37.3307 119.931 37.1868 119.261 37.1868C118.806 37.1868 118.421 37.2513 118.108 37.3801C117.794 37.5047 117.554 37.6786 117.386 37.902C117.223 38.1253 117.141 38.3787 117.141 38.6622C117.133 38.8984 117.182 39.1046 117.29 39.2807C117.401 39.4568 117.554 39.6092 117.747 39.7381C117.94 39.8626 118.164 39.9722 118.417 40.0667C118.67 40.1569 118.941 40.2342 119.229 40.2986L120.414 40.5821C120.99 40.7109 121.518 40.8827 121.999 41.0975C122.48 41.3122 122.897 41.5764 123.249 41.8899C123.601 42.2034 123.874 42.5728 124.067 42.998C124.265 43.4232 124.366 43.9107 124.37 44.4605C124.366 45.2679 124.159 45.968 123.751 46.5607C123.348 47.1492 122.764 47.6066 121.999 47.933C121.239 48.2551 120.322 48.4162 119.248 48.4162C118.183 48.4162 117.255 48.253 116.465 47.9266C115.679 47.6001 115.065 47.117 114.622 46.477C114.184 45.8327 113.954 45.036 113.933 44.0868H116.632C116.663 44.5292 116.789 44.8986 117.013 45.1949C117.24 45.487 117.543 45.7082 117.921 45.8585C118.303 46.0045 118.735 46.0776 119.216 46.0776C119.688 46.0776 120.099 46.0088 120.446 45.8714C120.799 45.734 121.071 45.5428 121.265 45.298C121.458 45.0532 121.555 44.7719 121.555 44.454C121.555 44.1577 121.467 43.9086 121.29 43.7067C121.119 43.5048 120.865 43.333 120.53 43.1913C120.199 43.0496 119.794 42.9207 119.313 42.8047L117.876 42.444C116.763 42.1734 115.885 41.7503 115.241 41.1748C114.597 40.5992 114.277 39.824 114.281 38.849C114.277 38.0501 114.489 37.3522 114.919 36.7552C115.353 36.1582 115.947 35.6922 116.703 35.3572C117.459 35.0221 118.318 34.8546 119.28 34.8546C120.26 34.8546 121.114 35.0221 121.844 35.3572C122.579 35.6922 123.15 36.1582 123.558 36.7552C123.966 37.3522 124.177 38.0437 124.19 38.8297H121.516ZM130.927 38.3336V40.3952H124.968V38.3336H130.927ZM126.32 35.9628H129.065V45.1885C129.065 45.4419 129.104 45.6395 129.181 45.7812C129.258 45.9186 129.366 46.0153 129.503 46.0711C129.645 46.127 129.808 46.1549 129.993 46.1549C130.122 46.1549 130.25 46.1441 130.379 46.1227C130.508 46.0969 130.607 46.0776 130.676 46.0647L131.107 48.107C130.97 48.1499 130.777 48.1993 130.527 48.2551C130.278 48.3153 129.976 48.3518 129.619 48.3647C128.958 48.3904 128.378 48.3024 127.88 48.1005C127.386 47.8987 127.001 47.5851 126.726 47.1599C126.451 46.7347 126.316 46.1978 126.32 45.5493V35.9628ZM136.548 48.4226C135.547 48.4226 134.682 48.21 133.952 47.7848C133.226 47.3553 132.665 46.7583 132.27 45.9938C131.875 45.225 131.677 44.3338 131.677 43.3201C131.677 42.2979 131.875 41.4046 132.27 40.64C132.665 39.8712 133.226 39.2742 133.952 38.849C134.682 38.4195 135.547 38.2048 136.548 38.2048C137.549 38.2048 138.412 38.4195 139.138 38.849C139.868 39.2742 140.431 39.8712 140.826 40.64C141.221 41.4046 141.419 42.2979 141.419 43.3201C141.419 44.3338 141.221 45.225 140.826 45.9938C140.431 46.7583 139.868 47.3553 139.138 47.7848C138.412 48.21 137.549 48.4226 136.548 48.4226ZM136.561 46.2966C137.016 46.2966 137.396 46.1678 137.701 45.9101C138.006 45.6481 138.236 45.2916 138.391 44.8406C138.55 44.3896 138.629 43.8764 138.629 43.3008C138.629 42.7253 138.55 42.212 138.391 41.761C138.236 41.3101 138.006 40.9536 137.701 40.6916C137.396 40.4296 137.016 40.2986 136.561 40.2986C136.101 40.2986 135.715 40.4296 135.401 40.6916C135.092 40.9536 134.858 41.3101 134.699 41.761C134.544 42.212 134.467 42.7253 134.467 43.3008C134.467 43.8764 134.544 44.3896 134.699 44.8406C134.858 45.2916 135.092 45.6481 135.401 45.9101C135.715 46.1678 136.101 46.2966 136.561 46.2966ZM142.672 48.2294V38.3336H145.332V40.0602H145.436C145.616 39.446 145.919 38.9822 146.344 38.6686C146.769 38.3508 147.259 38.1919 147.813 38.1919C147.95 38.1919 148.098 38.2005 148.257 38.2176C148.416 38.2348 148.556 38.2584 148.676 38.2885V40.7238C148.547 40.6851 148.369 40.6508 148.141 40.6207C147.914 40.5907 147.705 40.5756 147.517 40.5756C147.113 40.5756 146.752 40.6637 146.434 40.8398C146.121 41.0116 145.872 41.2521 145.687 41.5613C145.506 41.8706 145.416 42.2271 145.416 42.6308V48.2294H142.672ZM153.613 48.4226C152.595 48.4226 151.719 48.2165 150.984 47.8042C150.254 47.3875 149.691 46.7991 149.296 46.0389C148.901 45.2744 148.704 44.3703 148.704 43.3266C148.704 42.3087 148.901 41.4153 149.296 40.6465C149.691 39.8777 150.248 39.2785 150.965 38.849C151.686 38.4195 152.533 38.2048 153.503 38.2048C154.156 38.2048 154.764 38.31 155.327 38.5204C155.893 38.7266 156.387 39.038 156.808 39.4546C157.234 39.8712 157.564 40.3952 157.8 41.0266C158.037 41.6537 158.155 42.3881 158.155 43.2299V43.9837H149.799V42.2829H155.571C155.571 41.8878 155.485 41.5377 155.314 41.2328C155.142 40.9278 154.903 40.6894 154.599 40.5176C154.298 40.3415 153.948 40.2535 153.548 40.2535C153.132 40.2535 152.762 40.3501 152.44 40.5434C152.122 40.7324 151.873 40.9879 151.693 41.3101C151.513 41.6279 151.42 41.9822 151.416 42.3731V43.9902C151.416 44.4798 151.506 44.9029 151.686 45.2594C151.871 45.6158 152.131 45.8907 152.466 46.084C152.801 46.2773 153.198 46.3739 153.658 46.3739C153.963 46.3739 154.242 46.331 154.495 46.2451C154.749 46.1592 154.966 46.0303 155.146 45.8585C155.327 45.6867 155.464 45.4763 155.558 45.2271L158.097 45.3946C157.968 46.0045 157.704 46.5371 157.304 46.9924C156.909 47.4434 156.398 47.7956 155.771 48.049C155.148 48.2981 154.429 48.4226 153.613 48.4226Z" fill="#D8D8D8"/>
<path fill-rule="evenodd" clip-rule="evenodd" d="M47.7471 45.5631C49.0014 43.6497 49.4692 42.6717 50.4259 40.5244C43.3674 37.8456 42.2406 27.7894 49.2141 23.9413C47.088 21.2624 44.0903 19.7104 41.2627 19.7104C39.2217 19.7104 37.8185 20.242 36.5641 20.731C35.5011 21.1349 34.5444 21.4963 33.3538 21.4963C32.0782 21.4963 30.9513 21.0924 29.7608 20.6672C28.4639 20.1995 27.1032 19.7104 25.4024 19.7104C22.2346 19.7104 18.8542 21.6452 16.7069 24.9618C13.6879 29.6391 14.2194 38.3984 19.088 45.882C20.8314 48.5608 23.17 51.5586 26.2103 51.6011C27.4859 51.6223 28.3151 51.2397 29.2293 50.8357C30.271 50.368 31.3978 49.8577 33.375 49.8577C35.3522 49.8365 36.4578 50.368 37.4996 50.8357C38.3925 51.2397 39.2004 51.6223 40.4548 51.6011C43.5375 51.5586 46.0037 48.2419 47.7471 45.5631Z" fill="white"/>
<path fill-rule="evenodd" clip-rule="evenodd" d="M40.8161 9.0802C41.1563 11.4188 40.1996 13.7363 38.9452 15.3521C37.6058 17.0954 35.2672 18.456 33.0136 18.371C32.6096 16.1174 33.6514 13.8 34.927 12.248C36.3515 10.5471 38.7539 9.22902 40.8161 9.0802Z" fill="white"/>
</svg>
