<svg width="63" height="64" viewBox="0 0 63 64" fill="none" xmlns="http://www.w3.org/2000/svg">
<path fill-rule="evenodd" clip-rule="evenodd" d="M58.4688 57.628C57.0603 56.2415 55.3869 55.1529 53.5486 54.427C51.7103 53.7011 49.7446 53.3528 47.7688 53.403C49.691 53.294 51.5242 52.5562 52.9858 51.303C53.9598 50.4586 54.7054 49.3825 55.1538 48.174C56.2991 48.4178 57.3852 48.8849 58.35 49.5486C59.3148 50.2122 60.1394 51.0593 60.7768 52.0417C61.4142 53.024 61.8519 54.1222 62.0649 55.2737C62.2778 56.4252 62.2619 57.6073 62.018 58.7526C61.6746 60.3652 60.8909 61.851 59.7538 63.045C60.8358 61.271 60.1538 59.314 58.4688 57.628Z" fill="#9C3340" stroke="#171716" stroke-width="0.283" stroke-linecap="round" stroke-linejoin="round"/>
<path fill-rule="evenodd" clip-rule="evenodd" d="M49.0388 44.2319C51.7048 43.5579 52.6738 47.4319 50.0158 49.1149C49.1596 49.7538 48.149 50.154 47.0875 50.2745C46.026 50.395 44.9515 50.2316 43.9738 49.8009C39.1308 47.8919 35.2808 42.1129 33.6388 36.0939C38.6808 35.2329 43.1568 31.6459 43.4918 25.3289C37.9398 23.6189 32.7418 25.5119 31.2198 30.7289C29.6978 25.5079 24.5038 23.6139 18.9518 25.3289C19.2868 31.6459 23.7628 35.2289 28.8048 36.0939C27.1628 42.1119 23.3128 47.8939 18.4698 49.8009C17.4921 50.2317 16.4176 50.3952 15.3561 50.2747C14.2945 50.1542 13.284 49.7539 12.4278 49.1149C9.76979 47.4289 10.7378 43.5589 13.4038 44.2319C10.7378 43.5579 9.76879 47.4319 12.4278 49.1149C14.9468 50.6459 17.8168 49.0589 18.9608 46.9469C19.6611 45.6551 19.8211 44.1384 19.4058 42.7289C18.9905 41.3193 18.0337 40.1317 16.7448 39.4259C15.3864 38.6418 13.7883 38.3812 12.2512 38.6932C10.714 39.0052 9.34396 39.8682 8.3988 41.1199C7.21771 42.6217 6.66785 44.5244 6.86572 46.4248C7.06359 48.3251 7.99364 50.0737 9.4588 51.2999C12.2808 53.7429 16.1668 53.9469 19.5788 52.5999C24.8998 50.4999 29.1088 44.8999 31.2208 38.6819C33.3328 44.8999 37.5418 50.4999 42.8628 52.5999C46.2788 53.9429 50.1628 53.7399 52.9868 51.2999C54.4511 50.0731 55.3805 48.3246 55.5783 46.4246C55.7762 44.5246 55.2269 42.6221 54.0468 41.1199C53.1008 39.8681 51.73 39.0051 50.1923 38.6931C48.6546 38.3811 47.0558 38.6417 45.6968 39.4259C44.409 40.1328 43.4534 41.3207 43.0389 42.73C42.6244 44.1394 42.7847 45.6555 43.4848 46.9469C44.6288 49.0589 47.4988 50.6469 50.0178 49.1149C52.6738 47.429 51.7048 43.5579 49.0388 44.2319Z" fill="#9C3340"/>
<path d="M12.4278 49.1149C13.284 49.7539 14.2945 50.1542 15.3561 50.2747C16.4176 50.3952 17.4921 50.2317 18.4698 49.8009C23.3128 47.8939 27.1628 42.1119 28.8048 36.0939C23.7628 35.2289 19.2868 31.6459 18.9518 25.3289C24.5038 23.6139 29.6978 25.5079 31.2198 30.7289C32.7418 25.5119 37.9398 23.6189 43.4918 25.3289C43.1568 31.6459 38.6808 35.2329 33.6388 36.0939C35.2808 42.1129 39.1308 47.8919 43.9738 49.8009C44.9515 50.2316 46.026 50.395 47.0875 50.2745C48.149 50.154 49.1596 49.7538 50.0158 49.1149C52.6738 47.4319 51.7048 43.5579 49.0388 44.2319C51.7048 43.5579 52.6738 47.429 50.0178 49.1149C47.4988 50.6469 44.6288 49.0589 43.4848 46.9469C42.7847 45.6555 42.6244 44.1394 43.0389 42.73C43.4534 41.3207 44.409 40.1328 45.6968 39.4259C47.0558 38.6417 48.6546 38.3811 50.1923 38.6931C51.73 39.0051 53.1008 39.8681 54.0468 41.1199C55.2269 42.6221 55.7762 44.5246 55.5783 46.4246C55.3805 48.3246 54.4511 50.0731 52.9868 51.2999C50.1628 53.7399 46.2788 53.9429 42.8628 52.5999C37.5418 50.4999 33.3328 44.8999 31.2208 38.6819C29.1088 44.8999 24.8998 50.4999 19.5788 52.5999C16.1668 53.9469 12.2808 53.7429 9.4588 51.2999C7.99364 50.0737 7.06359 48.3251 6.86572 46.4248C6.66785 44.5244 7.21771 42.6217 8.3988 41.1199C9.34396 39.8682 10.714 39.0052 12.2512 38.6932C13.7883 38.3812 15.3864 38.6418 16.7448 39.4259C18.0337 40.1317 18.9905 41.3193 19.4058 42.7289C19.8211 44.1384 19.6611 45.6551 18.9608 46.9469C17.8168 49.0589 14.9468 50.6459 12.4278 49.1149ZM12.4278 49.1149C9.76979 47.4289 10.7378 43.5589 13.4038 44.2319C10.7378 43.5579 9.76879 47.4319 12.4278 49.1149Z" stroke="#171716" stroke-width="0.283" stroke-linecap="round" stroke-linejoin="round"/>
<path fill-rule="evenodd" clip-rule="evenodd" d="M26.2989 25.316C23.6639 17.93 30.6829 16.097 31.2169 12.908C31.7509 16.097 38.7739 17.93 36.1349 25.316C34.9411 25.7589 33.8713 26.4821 33.0154 27.4248C32.1596 28.3675 31.5427 29.5021 31.2169 30.733C30.8924 29.5014 30.2761 28.3662 29.4201 27.4233C28.564 26.4804 27.4934 25.7576 26.2989 25.316Z" fill="#9E442A" stroke="#171716" stroke-width="0.283" stroke-linecap="round" stroke-linejoin="round"/>
<path fill-rule="evenodd" clip-rule="evenodd" d="M3.9678 57.628C5.3774 56.2412 7.05175 55.1525 8.89108 54.4266C10.7304 53.7007 12.6971 53.3526 14.6738 53.403C12.7514 53.2948 10.918 52.5568 9.45678 51.303C8.48285 50.4585 7.73726 49.3824 7.28878 48.174C6.14347 48.4178 5.05742 48.8849 4.09262 49.5486C3.12782 50.2122 2.30317 51.0593 1.66577 52.0417C1.02836 53.024 0.590678 54.1222 0.377712 55.2737C0.164747 56.4252 0.180663 57.6073 0.424557 58.7526C0.767958 60.3652 1.55173 61.851 2.68878 63.045C1.6048 61.271 2.28381 59.314 3.9678 57.628Z" fill="#9C3340" stroke="#171716" stroke-width="0.283" stroke-linecap="round" stroke-linejoin="round"/>
<path d="M31.2207 58.316V39.072" stroke="#171716" stroke-width="0.283" stroke-linecap="round" stroke-linejoin="round"/>
<path fill-rule="evenodd" clip-rule="evenodd" d="M31.2198 1C31.709 0.999738 32.1934 1.09582 32.6455 1.28278C33.0975 1.46973 33.5083 1.7439 33.8544 2.08962C34.2005 2.43533 34.4751 2.84582 34.6625 3.29765C34.8499 3.74949 34.9466 4.23382 34.9468 4.72299C34.9471 5.21217 34.851 5.69661 34.664 6.14865C34.4771 6.60069 34.2029 7.01148 33.8572 7.35756C33.5115 7.70364 33.101 7.97824 32.6492 8.16568C32.1973 8.35312 31.713 8.44973 31.2238 8.45C30.7346 8.45026 30.2502 8.35418 29.7982 8.16722C29.3461 7.98027 28.9353 7.7061 28.5893 7.36038C28.2432 7.01467 27.9686 6.60418 27.7812 6.15234C27.5937 5.70051 27.4971 5.21616 27.4968 4.72699V4.72299C27.4968 4.23408 27.5931 3.74996 27.7802 3.29826C27.9673 2.84657 28.2416 2.43615 28.5873 2.09044C28.933 1.74473 29.3434 1.47049 29.7951 1.28339C30.2468 1.09629 30.7309 1 31.2198 1Z" fill="#9C3340" stroke="#171716" stroke-width="0.283" stroke-linecap="round" stroke-linejoin="round"/>
</svg>
