<svg width="220" height="63" viewBox="0 0 220 63" fill="none" xmlns="http://www.w3.org/2000/svg">
<rect x="0.148926" width="219.807" height="61.639" rx="11.3389" fill="black"/>
<path d="M57.8153 35.4369L51.9049 38.392C51.501 38.6046 51.012 38.5196 50.6718 38.2007L46.6961 34.225C46.2709 33.7998 46.2709 33.1407 46.6961 32.7155L50.7356 28.676C51.0545 28.3571 51.5647 28.2721 51.9687 28.4847L57.8153 31.4186C59.4949 32.2265 59.4949 34.6077 57.8153 35.4369Z" fill="white"/>
<path d="M46.9727 25.9543C47.6318 26.2732 47.7593 27.145 47.2491 27.6552L43.6986 31.2057L42.1891 32.7152C41.7639 33.1404 41.1048 33.1404 40.6796 32.7152L25.4997 17.5352C24.6493 16.6848 25.6485 15.3029 26.7328 15.8344L46.9727 25.9543Z" fill="white"/>
<path d="M16.5703 50.7446V15.3035C16.5703 14.3681 17.6971 13.8791 18.3774 14.5381L37.0228 32.6308C37.4693 33.056 37.448 33.7575 37.0016 34.1827L18.3562 51.5312C17.6759 52.1691 16.5703 51.6801 16.5703 50.7446Z" fill="white"/>
<path d="M46.9087 40.9008L26.9452 50.8932C25.8609 51.4247 24.8617 50.0428 25.7121 49.1924L40.7007 34.2038C41.1259 33.7786 41.785 33.7786 42.2102 34.2038L47.2064 39.2C47.6954 39.7103 47.5465 40.5819 46.9087 40.9008Z" fill="white"/>
<path d="M75.1218 29.5116H71.0501V16.3173H75.3022C76.5821 16.3173 77.6774 16.5814 78.5879 17.1097C79.4985 17.6337 80.1964 18.3875 80.6818 19.371C81.1671 20.3503 81.4098 21.5228 81.4098 22.8887C81.4098 24.2631 81.165 25.4463 80.6753 26.4385C80.1857 27.4264 79.4727 28.1866 78.5364 28.7192C77.6001 29.2475 76.4619 29.5116 75.1218 29.5116ZM72.6479 28.0942H75.0188C76.1097 28.0942 77.0138 27.8838 77.7311 27.4629C78.4483 27.042 78.9831 26.4428 79.3353 25.6654C79.6875 24.888 79.8636 23.9624 79.8636 22.8887C79.8636 21.8235 79.6896 20.9065 79.3417 20.1377C78.9938 19.3646 78.4741 18.7719 77.7826 18.3595C77.0911 17.9429 76.23 17.7346 75.1991 17.7346H72.6479V28.0942ZM87.3724 29.7178C86.479 29.7178 85.6952 29.5052 85.0208 29.0799C84.3508 28.6547 83.8268 28.0599 83.4489 27.2954C83.0752 26.5308 82.8884 25.6375 82.8884 24.6153C82.8884 23.5844 83.0752 22.6846 83.4489 21.9158C83.8268 21.147 84.3508 20.55 85.0208 20.1248C85.6952 19.6996 86.479 19.487 87.3724 19.487C88.2657 19.487 89.0474 19.6996 89.7175 20.1248C90.3918 20.55 90.9158 21.147 91.2895 21.9158C91.6674 22.6846 91.8564 23.5844 91.8564 24.6153C91.8564 25.6375 91.6674 26.5308 91.2895 27.2954C90.9158 28.0599 90.3918 28.6547 89.7175 29.0799C89.0474 29.5052 88.2657 29.7178 87.3724 29.7178ZM87.3724 28.3519C88.051 28.3519 88.6093 28.178 89.0474 27.8301C89.4855 27.4822 89.8098 27.0248 90.0203 26.4578C90.2307 25.8909 90.336 25.2767 90.336 24.6153C90.336 23.9538 90.2307 23.3375 90.0203 22.7662C89.8098 22.195 89.4855 21.7333 89.0474 21.3811C88.6093 21.0289 88.051 20.8528 87.3724 20.8528C86.6938 20.8528 86.1354 21.0289 85.6973 21.3811C85.2592 21.7333 84.9349 22.195 84.7245 22.7662C84.514 23.3375 84.4088 23.9538 84.4088 24.6153C84.4088 25.2767 84.514 25.8909 84.7245 26.4578C84.9349 27.0248 85.2592 27.4822 85.6973 27.8301C86.1354 28.178 86.6938 28.3519 87.3724 28.3519ZM95.5512 29.5116L92.5361 19.6158H94.1339L96.2728 27.1923H96.3759L98.489 19.6158H100.113L102.2 27.1665H102.303L104.442 19.6158H106.04L103.025 29.5116H101.53L99.3652 21.9094H99.2106L97.0459 29.5116H95.5512ZM109.039 23.5587V29.5116H107.518V19.6158H108.987V21.162H109.116C109.348 20.6595 109.7 20.2558 110.173 19.9509C110.645 19.6416 111.255 19.487 112.002 19.487C112.672 19.487 113.259 19.6244 113.761 19.8993C114.264 20.1699 114.654 20.5822 114.934 21.1363C115.213 21.686 115.352 22.3818 115.352 23.2237V29.5116H113.832V23.3267C113.832 22.5493 113.63 21.9437 113.226 21.5099C112.823 21.0719 112.269 20.8528 111.564 20.8528C111.079 20.8528 110.645 20.958 110.263 21.1685C109.885 21.3789 109.586 21.686 109.367 22.0898C109.148 22.4935 109.039 22.9831 109.039 23.5587ZM119.12 16.3173V29.5116H117.599V16.3173H119.12ZM125.393 29.7178C124.5 29.7178 123.716 29.5052 123.042 29.0799C122.372 28.6547 121.848 28.0599 121.47 27.2954C121.096 26.5308 120.909 25.6375 120.909 24.6153C120.909 23.5844 121.096 22.6846 121.47 21.9158C121.848 21.147 122.372 20.55 123.042 20.1248C123.716 19.6996 124.5 19.487 125.393 19.487C126.287 19.487 127.068 19.6996 127.738 20.1248C128.413 20.55 128.937 21.147 129.31 21.9158C129.688 22.6846 129.877 23.5844 129.877 24.6153C129.877 25.6375 129.688 26.5308 129.31 27.2954C128.937 28.0599 128.413 28.6547 127.738 29.0799C127.068 29.5052 126.287 29.7178 125.393 29.7178ZM125.393 28.3519C126.072 28.3519 126.63 28.178 127.068 27.8301C127.506 27.4822 127.831 27.0248 128.041 26.4578C128.252 25.8909 128.357 25.2767 128.357 24.6153C128.357 23.9538 128.252 23.3375 128.041 22.7662C127.831 22.195 127.506 21.7333 127.068 21.3811C126.63 21.0289 126.072 20.8528 125.393 20.8528C124.715 20.8528 124.156 21.0289 123.718 21.3811C123.28 21.7333 122.956 22.195 122.745 22.7662C122.535 23.3375 122.43 23.9538 122.43 24.6153C122.43 25.2767 122.535 25.8909 122.745 26.4578C122.956 27.0248 123.28 27.4822 123.718 27.8301C124.156 28.178 124.715 28.3519 125.393 28.3519ZM134.579 29.7435C133.952 29.7435 133.383 29.6254 132.871 29.3892C132.36 29.1487 131.954 28.8029 131.654 28.3519C131.353 27.8967 131.203 27.3469 131.203 26.7026C131.203 26.1357 131.314 25.6761 131.538 25.3239C131.761 24.9675 132.06 24.6883 132.433 24.4864C132.807 24.2845 133.219 24.1342 133.67 24.0354C134.126 23.9323 134.583 23.8507 135.043 23.7906C135.644 23.7133 136.131 23.6553 136.505 23.6167C136.883 23.5737 137.158 23.5028 137.33 23.4041C137.506 23.3053 137.594 23.1335 137.594 22.8887V22.8371C137.594 22.2014 137.42 21.7075 137.072 21.3553C136.728 21.0031 136.207 20.827 135.506 20.827C134.781 20.827 134.211 20.986 133.799 21.3038C133.387 21.6216 133.097 21.9609 132.929 22.3217L131.486 21.8063C131.744 21.205 132.088 20.7368 132.517 20.4018C132.951 20.0625 133.423 19.8263 133.934 19.6931C134.45 19.5557 134.957 19.487 135.455 19.487C135.773 19.487 136.138 19.5256 136.55 19.603C136.967 19.676 137.368 19.8284 137.755 20.0604C138.146 20.2923 138.47 20.6424 138.728 21.1105C138.985 21.5787 139.114 22.2057 139.114 22.9917V29.5116H137.594V28.1715H137.517C137.413 28.3863 137.242 28.6161 137.001 28.8609C136.761 29.1057 136.441 29.314 136.041 29.4858C135.642 29.6576 135.154 29.7435 134.579 29.7435ZM134.811 28.3777C135.412 28.3777 135.919 28.2596 136.331 28.0234C136.748 27.7871 137.061 27.4822 137.272 27.1085C137.486 26.7349 137.594 26.3419 137.594 25.9295V24.5379C137.529 24.6153 137.388 24.6861 137.169 24.7506C136.954 24.8107 136.705 24.8644 136.421 24.9116C136.142 24.9546 135.869 24.9932 135.603 25.0276C135.341 25.0576 135.128 25.0834 134.965 25.1049C134.57 25.1564 134.201 25.2402 133.857 25.3562C133.518 25.4678 133.243 25.6375 133.032 25.8651C132.826 26.0885 132.723 26.3934 132.723 26.78C132.723 27.3082 132.919 27.7077 133.31 27.9783C133.705 28.2446 134.205 28.3777 134.811 28.3777ZM145.095 29.7178C144.27 29.7178 143.542 29.5094 142.911 29.0928C142.279 28.6719 141.785 28.0792 141.429 27.3147C141.072 26.5459 140.894 25.6375 140.894 24.5895C140.894 23.5501 141.072 22.6481 141.429 21.8836C141.785 21.1191 142.281 20.5285 142.917 20.1119C143.553 19.6953 144.287 19.487 145.12 19.487C145.765 19.487 146.274 19.5944 146.647 19.8091C147.025 20.0196 147.313 20.2601 147.511 20.5307C147.712 20.797 147.869 21.016 147.981 21.1878H148.11V16.3173H149.63V29.5116H148.161V27.9912H147.981C147.869 28.1715 147.71 28.3992 147.504 28.6741C147.298 28.9447 147.004 29.1873 146.621 29.4021C146.239 29.6125 145.73 29.7178 145.095 29.7178ZM145.301 28.3519C145.911 28.3519 146.426 28.193 146.847 27.8752C147.268 27.5531 147.588 27.1085 147.807 26.5416C148.026 25.9703 148.135 25.3111 148.135 24.5637C148.135 23.825 148.028 23.1786 147.813 22.6245C147.599 22.0662 147.281 21.6324 146.86 21.3231C146.439 21.0096 145.919 20.8528 145.301 20.8528C144.657 20.8528 144.12 21.0182 143.69 21.3489C143.265 21.6753 142.945 22.1198 142.73 22.6825C142.52 23.2408 142.414 23.8679 142.414 24.5637C142.414 25.2681 142.522 25.9081 142.737 26.4836C142.956 27.0548 143.278 27.5101 143.703 27.8494C144.133 28.1844 144.665 28.3519 145.301 28.3519ZM160.686 29.7178C159.792 29.7178 159.008 29.5052 158.334 29.0799C157.664 28.6547 157.14 28.0599 156.762 27.2954C156.388 26.5308 156.202 25.6375 156.202 24.6153C156.202 23.5844 156.388 22.6846 156.762 21.9158C157.14 21.147 157.664 20.55 158.334 20.1248C159.008 19.6996 159.792 19.487 160.686 19.487C161.579 19.487 162.361 19.6996 163.031 20.1248C163.705 20.55 164.229 21.147 164.603 21.9158C164.981 22.6846 165.17 23.5844 165.17 24.6153C165.17 25.6375 164.981 26.5308 164.603 27.2954C164.229 28.0599 163.705 28.6547 163.031 29.0799C162.361 29.5052 161.579 29.7178 160.686 29.7178ZM160.686 28.3519C161.364 28.3519 161.923 28.178 162.361 27.8301C162.799 27.4822 163.123 27.0248 163.334 26.4578C163.544 25.8909 163.649 25.2767 163.649 24.6153C163.649 23.9538 163.544 23.3375 163.334 22.7662C163.123 22.195 162.799 21.7333 162.361 21.3811C161.923 21.0289 161.364 20.8528 160.686 20.8528C160.007 20.8528 159.449 21.0289 159.011 21.3811C158.572 21.7333 158.248 22.195 158.038 22.7662C157.827 23.3375 157.722 23.9538 157.722 24.6153C157.722 25.2767 157.827 25.8909 158.038 26.4578C158.248 27.0248 158.572 27.4822 159.011 27.8301C159.449 28.178 160.007 28.3519 160.686 28.3519ZM168.48 23.5587V29.5116H166.959V19.6158H168.428V21.162H168.557C168.789 20.6595 169.141 20.2558 169.613 19.9509C170.086 19.6416 170.696 19.487 171.443 19.487C172.113 19.487 172.699 19.6244 173.202 19.8993C173.704 20.1699 174.095 20.5822 174.374 21.1363C174.654 21.686 174.793 22.3818 174.793 23.2237V29.5116H173.273V23.3267C173.273 22.5493 173.071 21.9437 172.667 21.5099C172.263 21.0719 171.709 20.8528 171.005 20.8528C170.52 20.8528 170.086 20.958 169.704 21.1685C169.326 21.3789 169.027 21.686 168.808 22.0898C168.589 22.4935 168.48 22.9831 168.48 23.5587ZM185.915 19.6158V20.9043H180.786V19.6158H185.915ZM182.281 17.245H183.802V26.6769C183.802 27.1064 183.864 27.4285 183.988 27.6433C184.117 27.8537 184.28 27.9954 184.478 28.0685C184.68 28.1372 184.893 28.1715 185.116 28.1715C185.283 28.1715 185.421 28.163 185.528 28.1458C185.636 28.1243 185.721 28.1071 185.786 28.0942L186.095 29.4601C185.992 29.4987 185.848 29.5374 185.663 29.576C185.479 29.619 185.245 29.6404 184.961 29.6404C184.532 29.6404 184.111 29.5481 183.699 29.3634C183.29 29.1787 182.951 28.8974 182.681 28.5194C182.414 28.1415 182.281 27.6647 182.281 27.0892V17.245ZM189.403 23.5587V29.5116H187.883V16.3173H189.403V21.162H189.532C189.764 20.6509 190.112 20.2451 190.576 19.9444C191.044 19.6395 191.667 19.487 192.444 19.487C193.119 19.487 193.709 19.6223 194.216 19.8929C194.723 20.1592 195.116 20.5693 195.395 21.1234C195.678 21.6732 195.82 22.3732 195.82 23.2237V29.5116H194.3V23.3267C194.3 22.5408 194.096 21.933 193.688 21.5035C193.284 21.0697 192.723 20.8528 192.006 20.8528C191.508 20.8528 191.061 20.958 190.666 21.1685C190.275 21.3789 189.966 21.686 189.738 22.0898C189.515 22.4935 189.403 22.9831 189.403 23.5587ZM202.219 29.7178C201.266 29.7178 200.443 29.5073 199.752 29.0864C199.065 28.6612 198.534 28.0685 198.16 27.3082C197.791 26.5437 197.606 25.6547 197.606 24.641C197.606 23.6274 197.791 22.734 198.16 21.9609C198.534 21.1835 199.054 20.5779 199.72 20.1441C200.39 19.706 201.171 19.487 202.065 19.487C202.58 19.487 203.089 19.5729 203.592 19.7447C204.094 19.9165 204.551 20.1957 204.964 20.5822C205.376 20.9645 205.705 21.4713 205.95 22.1027C206.194 22.734 206.317 23.5114 206.317 24.4349V25.0791H198.689V23.7648H204.771C204.771 23.2065 204.659 22.7083 204.436 22.2702C204.216 21.8321 203.903 21.4863 203.495 21.2329C203.091 20.9795 202.614 20.8528 202.065 20.8528C201.459 20.8528 200.935 21.0031 200.493 21.3038C200.055 21.6001 199.717 21.9867 199.481 22.4634C199.245 22.9402 199.127 23.4513 199.127 23.9968V24.873C199.127 25.6203 199.256 26.2538 199.513 26.7735C199.775 27.2889 200.138 27.6819 200.602 27.9525C201.066 28.2188 201.605 28.3519 202.219 28.3519C202.619 28.3519 202.98 28.2961 203.302 28.1844C203.628 28.0685 203.909 27.8967 204.146 27.669C204.382 27.4371 204.564 27.1493 204.693 26.8057L206.162 27.218C206.008 27.7163 205.748 28.1544 205.383 28.5323C205.018 28.906 204.567 29.1981 204.03 29.4085C203.493 29.6147 202.889 29.7178 202.219 29.7178Z" fill="#D8D8D8"/>
<path d="M79.3482 42.6931C79.258 42.3795 79.1313 42.1025 78.968 41.862C78.8048 41.6172 78.6051 41.411 78.3689 41.2435C78.137 41.0717 77.8707 40.9407 77.57 40.8505C77.2737 40.7603 76.9451 40.7152 76.5843 40.7152C75.91 40.7152 75.3173 40.8827 74.8062 41.2177C74.2993 41.5527 73.9042 42.0402 73.6207 42.6802C73.3373 43.3158 73.1955 44.0932 73.1955 45.0124C73.1955 45.9315 73.3351 46.7132 73.6143 47.3575C73.8935 48.0017 74.2886 48.4935 74.7997 48.8328C75.3108 49.1678 75.9143 49.3353 76.6101 49.3353C77.2414 49.3353 77.7805 49.2237 78.2271 49.0003C78.6781 48.7727 79.0217 48.4527 79.258 48.0404C79.4985 47.6281 79.6187 47.1406 79.6187 46.5779L80.1857 46.6617H76.784V44.5614H82.3053V46.2236C82.3053 47.3832 82.0605 48.3797 81.5708 49.2129C81.0812 50.0419 80.4069 50.6818 79.5479 51.1328C78.6889 51.5795 77.7053 51.8028 76.5972 51.8028C75.3602 51.8028 74.2736 51.5301 73.3373 50.9846C72.4009 50.4349 71.6708 49.6553 71.1468 48.646C70.6271 47.6323 70.3672 46.4297 70.3672 45.0381C70.3672 43.9687 70.5219 43.0152 70.8311 42.1777C71.1446 41.3358 71.5827 40.6229 72.1454 40.0387C72.708 39.4546 73.363 39.0101 74.1104 38.7051C74.8577 38.4002 75.6673 38.2477 76.5392 38.2477C77.2865 38.2477 77.9823 38.3572 78.6266 38.5763C79.2708 38.791 79.8421 39.096 80.3403 39.4911C80.8428 39.8863 81.253 40.3566 81.5708 40.902C81.8887 41.4432 82.0927 42.0402 82.1829 42.6931H79.3482ZM88.2888 51.8157C87.2881 51.8157 86.4226 51.6031 85.6925 51.1779C84.9666 50.7484 84.4061 50.1514 84.011 49.3869C83.6158 48.6181 83.4183 47.7268 83.4183 46.7132C83.4183 45.691 83.6158 44.7976 84.011 44.0331C84.4061 43.2643 84.9666 42.6673 85.6925 42.2421C86.4226 41.8126 87.2881 41.5978 88.2888 41.5978C89.2896 41.5978 90.1529 41.8126 90.8787 42.2421C91.6089 42.6673 92.1715 43.2643 92.5667 44.0331C92.9618 44.7976 93.1594 45.691 93.1594 46.7132C93.1594 47.7268 92.9618 48.6181 92.5667 49.3869C92.1715 50.1514 91.6089 50.7484 90.8787 51.1779C90.1529 51.6031 89.2896 51.8157 88.2888 51.8157ZM88.3017 49.6897C88.757 49.6897 89.1371 49.5608 89.442 49.3031C89.747 49.0411 89.9768 48.6846 90.1314 48.2337C90.2903 47.7827 90.3698 47.2694 90.3698 46.6939C90.3698 46.1183 90.2903 45.6051 90.1314 45.1541C89.9768 44.7031 89.747 44.3466 89.442 44.0847C89.1371 43.8227 88.757 43.6917 88.3017 43.6917C87.8421 43.6917 87.4556 43.8227 87.1421 44.0847C86.8328 44.3466 86.5987 44.7031 86.4398 45.1541C86.2852 45.6051 86.2079 46.1183 86.2079 46.6939C86.2079 47.2694 86.2852 47.7827 86.4398 48.2337C86.5987 48.6846 86.8328 49.0411 87.1421 49.3031C87.4556 49.5608 87.8421 49.6897 88.3017 49.6897ZM98.8836 51.8157C97.8829 51.8157 97.0174 51.6031 96.2873 51.1779C95.5614 50.7484 95.0009 50.1514 94.6058 49.3869C94.2106 48.6181 94.0131 47.7268 94.0131 46.7132C94.0131 45.691 94.2106 44.7976 94.6058 44.0331C95.0009 43.2643 95.5614 42.6673 96.2873 42.2421C97.0174 41.8126 97.8829 41.5978 98.8836 41.5978C99.8844 41.5978 100.748 41.8126 101.474 42.2421C102.204 42.6673 102.766 43.2643 103.161 44.0331C103.557 44.7976 103.754 45.691 103.754 46.7132C103.754 47.7268 103.557 48.6181 103.161 49.3869C102.766 50.1514 102.204 50.7484 101.474 51.1779C100.748 51.6031 99.8844 51.8157 98.8836 51.8157ZM98.8965 49.6897C99.3518 49.6897 99.7319 49.5608 100.037 49.3031C100.342 49.0411 100.572 48.6846 100.726 48.2337C100.885 47.7827 100.965 47.2694 100.965 46.6939C100.965 46.1183 100.885 45.6051 100.726 45.1541C100.572 44.7031 100.342 44.3466 100.037 44.0847C99.7319 43.8227 99.3518 43.6917 98.8965 43.6917C98.437 43.6917 98.0504 43.8227 97.7369 44.0847C97.4276 44.3466 97.1935 44.7031 97.0346 45.1541C96.88 45.6051 96.8027 46.1183 96.8027 46.6939C96.8027 47.2694 96.88 47.7827 97.0346 48.2337C97.1935 48.6846 97.4276 49.0411 97.7369 49.3031C98.0504 49.5608 98.437 49.6897 98.8965 49.6897ZM109.466 55.5395C108.576 55.5395 107.814 55.4171 107.178 55.1723C106.547 54.9318 106.045 54.6032 105.671 54.1866C105.297 53.77 105.055 53.3018 104.943 52.7821L107.481 52.4406C107.559 52.6382 107.681 52.8229 107.848 52.9947C108.016 53.1665 108.237 53.3039 108.512 53.407C108.791 53.5144 109.131 53.5681 109.53 53.5681C110.127 53.5681 110.619 53.4221 111.005 53.13C111.396 52.8422 111.592 52.359 111.592 51.6804V49.8701H111.476C111.355 50.1449 111.175 50.4048 110.934 50.6496C110.694 50.8944 110.385 51.0941 110.007 51.2488C109.629 51.4034 109.178 51.4807 108.654 51.4807C107.911 51.4807 107.234 51.3089 106.624 50.9653C106.019 50.6174 105.536 50.087 105.175 49.374C104.818 48.6567 104.64 47.7505 104.64 46.6552C104.64 45.5342 104.823 44.5979 105.188 43.8463C105.553 43.0946 106.038 42.532 106.644 42.1583C107.254 41.7847 107.921 41.5978 108.647 41.5978C109.201 41.5978 109.665 41.6923 110.039 41.8813C110.413 42.066 110.713 42.2979 110.941 42.5771C111.173 42.852 111.351 43.1226 111.476 43.3889H111.579V41.7267H114.304V51.7191C114.304 52.5609 114.098 53.2653 113.685 53.8322C113.273 54.3992 112.702 54.8244 111.972 55.1079C111.246 55.3956 110.41 55.5395 109.466 55.5395ZM109.524 49.4191C109.966 49.4191 110.34 49.3096 110.645 49.0905C110.954 48.8672 111.19 48.5493 111.353 48.137C111.521 47.7204 111.604 47.2222 111.604 46.6423C111.604 46.0625 111.523 45.56 111.36 45.1348C111.196 44.7053 110.96 44.3724 110.651 44.1362C110.342 43.9 109.966 43.7819 109.524 43.7819C109.073 43.7819 108.692 43.9043 108.383 44.1491C108.074 44.3896 107.84 44.7246 107.681 45.1541C107.522 45.5836 107.443 46.0797 107.443 46.6423C107.443 47.2136 107.522 47.7075 107.681 48.1241C107.844 48.5365 108.078 48.8564 108.383 49.0841C108.692 49.3074 109.073 49.4191 109.524 49.4191ZM118.701 38.4281V51.6224H115.956V38.4281H118.701ZM124.878 51.8157C123.86 51.8157 122.984 51.6096 122.249 51.1972C121.519 50.7806 120.956 50.1922 120.561 49.432C120.166 48.6675 119.969 47.7633 119.969 46.7197C119.969 45.7017 120.166 44.8084 120.561 44.0396C120.956 43.2707 121.513 42.6716 122.23 42.2421C122.951 41.8126 123.798 41.5978 124.768 41.5978C125.421 41.5978 126.029 41.7031 126.592 41.9135C127.158 42.1197 127.652 42.4311 128.073 42.8477C128.499 43.2643 128.829 43.7883 129.065 44.4197C129.302 45.0467 129.42 45.7812 129.42 46.623V47.3768H121.064V45.676H126.836C126.836 45.2808 126.75 44.9308 126.579 44.6258C126.407 44.3209 126.168 44.0825 125.864 43.9107C125.563 43.7346 125.213 43.6466 124.813 43.6466C124.397 43.6466 124.027 43.7432 123.705 43.9365C123.387 44.1255 123.138 44.381 122.958 44.7031C122.778 45.021 122.685 45.3753 122.681 45.7662V47.3832C122.681 47.8729 122.771 48.2959 122.951 48.6524C123.136 49.0089 123.396 49.2838 123.731 49.4771C124.066 49.6703 124.463 49.767 124.923 49.767C125.228 49.767 125.507 49.724 125.76 49.6381C126.014 49.5522 126.231 49.4234 126.411 49.2516C126.592 49.0798 126.729 48.8693 126.823 48.6202L129.362 48.7877C129.233 49.3976 128.969 49.9302 128.569 50.3855C128.174 50.8364 127.663 51.1886 127.036 51.442C126.413 51.6912 125.694 51.8157 124.878 51.8157ZM134.398 51.6224V38.4281H139.604C140.605 38.4281 141.457 38.6192 142.162 39.0015C142.866 39.3794 143.403 39.9056 143.772 40.5799C144.146 41.2499 144.333 42.023 144.333 42.8992C144.333 43.7754 144.144 44.5485 143.766 45.2185C143.388 45.8886 142.84 46.4104 142.123 46.7841C141.41 47.1577 140.547 47.3446 139.533 47.3446H136.215V45.109H139.082C139.619 45.109 140.061 45.0167 140.409 44.832C140.761 44.643 141.023 44.3832 141.195 44.0524C141.371 43.7174 141.459 43.333 141.459 42.8992C141.459 42.4611 141.371 42.0789 141.195 41.7524C141.023 41.4217 140.761 41.1662 140.409 40.9858C140.057 40.8011 139.61 40.7088 139.069 40.7088H137.188V51.6224H134.398ZM148.306 38.4281V51.6224H145.562V38.4281H148.306ZM152.795 51.8093C152.164 51.8093 151.601 51.6997 151.107 51.4807C150.613 51.2574 150.222 50.9288 149.935 50.495C149.651 50.0569 149.509 49.5114 149.509 48.8586C149.509 48.3088 149.61 47.8471 149.812 47.4734C150.014 47.0998 150.289 46.7991 150.637 46.5715C150.985 46.3438 151.38 46.172 151.822 46.0561C152.269 45.9401 152.737 45.8585 153.227 45.8113C153.802 45.7511 154.266 45.6953 154.618 45.6437C154.971 45.5879 155.226 45.5063 155.385 45.3989C155.544 45.2916 155.623 45.1326 155.623 44.9222V44.8835C155.623 44.4755 155.495 44.1598 155.237 43.9365C154.983 43.7131 154.623 43.6015 154.154 43.6015C153.661 43.6015 153.268 43.711 152.976 43.93C152.683 44.1448 152.49 44.4154 152.396 44.7418L149.857 44.5356C149.986 43.9343 150.24 43.4146 150.618 42.9765C150.995 42.5341 151.483 42.1948 152.08 41.9586C152.681 41.7181 153.377 41.5978 154.167 41.5978C154.717 41.5978 155.243 41.6623 155.746 41.7911C156.253 41.92 156.701 42.1197 157.092 42.3903C157.487 42.6608 157.799 43.0087 158.026 43.434C158.254 43.8549 158.368 44.3595 158.368 44.948V51.6224H155.765V50.2502H155.688C155.529 50.5594 155.316 50.8322 155.05 51.0684C154.784 51.3003 154.464 51.4828 154.09 51.616C153.716 51.7448 153.285 51.8093 152.795 51.8093ZM153.581 49.9152C153.985 49.9152 154.341 49.8357 154.651 49.6768C154.96 49.5136 155.202 49.2945 155.379 49.0196C155.555 48.7448 155.643 48.4334 155.643 48.0855V47.0353C155.557 47.0912 155.439 47.1427 155.288 47.19C155.142 47.2329 154.977 47.2737 154.792 47.3124C154.608 47.3467 154.423 47.3789 154.238 47.409C154.054 47.4348 153.886 47.4584 153.736 47.4799C153.414 47.5271 153.132 47.6023 152.892 47.7054C152.651 47.8084 152.464 47.948 152.331 48.1241C152.198 48.2959 152.132 48.5107 152.132 48.7684C152.132 49.1421 152.267 49.4277 152.537 49.6252C152.812 49.8185 153.16 49.9152 153.581 49.9152ZM161.306 55.3333C160.958 55.3333 160.631 55.3054 160.326 55.2496C160.026 55.1981 159.777 55.1315 159.579 55.0499L160.198 53.0011C160.52 53.0999 160.81 53.1536 161.067 53.1622C161.329 53.1708 161.555 53.1107 161.744 52.9818C161.937 52.853 162.094 52.6339 162.214 52.3247L162.375 51.9059L158.825 41.7267H161.712L163.76 48.9939H163.863L165.932 41.7267H168.837L164.991 52.6919C164.806 53.2245 164.555 53.6883 164.237 54.0835C163.924 54.4829 163.526 54.79 163.045 55.0048C162.564 55.2238 161.984 55.3333 161.306 55.3333Z" fill="#D8D8D8"/>
</svg>
