<svg width="572" height="94" viewBox="0 0 572 94" fill="none" xmlns="http://www.w3.org/2000/svg">
<g clip-path="url(#clip0_120_25)">
<path fill-rule="evenodd" clip-rule="evenodd" d="M461.412 4.37063C466.996 4.37062 472.37 6.44913 476.438 10.1826C480.506 13.9161 482.963 19.0236 483.308 24.4642C483.946 22.3519 484.915 20.3486 486.18 18.5252C484.579 13.3279 481.305 8.77247 476.844 5.53404C472.383 2.29562 466.972 0.546459 461.412 0.546021H110.587C105.027 0.546517 99.6163 2.29562 95.1553 5.53404C90.6942 8.77246 87.4206 13.328 85.8198 18.5252C87.0845 20.3488 88.0533 22.352 88.6918 24.4642C89.0365 19.0237 91.4932 13.9162 95.5614 10.1827C99.6296 6.44925 105.003 4.37063 110.587 4.37063H461.412ZM110.587 93.4539C105.027 93.4533 99.6163 91.7041 95.1553 88.4656C90.6942 85.2271 87.4206 80.6717 85.8198 75.4744C87.0846 73.6508 88.0534 71.6476 88.6918 69.5354C89.0364 74.9759 91.4932 80.0834 95.5614 83.8169C99.6296 87.5505 105.003 89.6292 110.587 89.6293H461.412C466.996 89.6292 472.37 87.5506 476.438 83.8171C480.506 80.0835 482.963 74.976 483.308 69.5354C483.946 71.6477 484.915 73.651 486.18 75.4744C484.579 80.6717 481.305 85.2273 476.844 88.4658C472.383 91.7042 466.972 93.4534 461.412 93.4539H110.587Z" fill="#9C3340" stroke="#9C3340" stroke-width="0.2835" stroke-linecap="round" stroke-linejoin="round"/>
<path fill-rule="evenodd" clip-rule="evenodd" d="M522.862 51.1357C525.08 49.9973 527.155 48.6111 529.045 47.0051C527.155 45.3995 525.08 44.0132 522.863 42.8739C521.376 44.2663 520.007 45.7176 518.512 47.0051C520.006 48.2908 521.376 49.7433 522.862 51.1357Z" fill="#4FA392" stroke="#9C3340" stroke-width="0.2835" stroke-linecap="round" stroke-linejoin="round"/>
<path fill-rule="evenodd" clip-rule="evenodd" d="M522.863 42.8739C525.081 44.0131 527.155 45.3994 529.045 47.0051C530.623 45.6641 532.064 44.1771 533.348 42.5649C531.471 41.3359 529.492 40.264 527.43 39.3606C525.773 40.3541 524.24 41.5332 522.863 42.8739Z" fill="#4FA392" stroke="#9C3340" stroke-width="0.2835" stroke-linecap="round" stroke-linejoin="round"/>
<path fill-rule="evenodd" clip-rule="evenodd" d="M529.045 47.0051C527.155 48.6111 525.08 49.9973 522.862 51.1357C524.238 52.4764 525.77 53.6555 527.426 54.6489C529.488 53.7452 531.468 52.6729 533.345 51.4435C532.062 49.8323 530.622 48.3459 529.045 47.0051Z" fill="#4FA392" stroke="#9C3340" stroke-width="0.2835" stroke-linecap="round" stroke-linejoin="round"/>
<path fill-rule="evenodd" clip-rule="evenodd" d="M529.045 47.0052C530.621 48.346 532.061 49.8324 533.345 51.4435C535.352 50.1297 537.235 48.6438 538.971 47.0033C537.236 45.3632 535.354 43.8778 533.347 42.5649C532.063 44.1771 530.623 45.6641 529.045 47.0052Z" fill="#4FA392" stroke="#9C3340" stroke-width="0.2835" stroke-linecap="round" stroke-linejoin="round"/>
<path fill-rule="evenodd" clip-rule="evenodd" d="M527.43 39.3606C529.491 40.264 531.471 41.3359 533.348 42.5649C534.752 40.7996 535.981 38.9079 537.018 36.9153C536.819 36.9164 536.619 36.9206 536.416 36.9295C533.256 36.9711 530.161 37.8085 527.43 39.3606Z" fill="#4FA392" stroke="#9C3340" stroke-width="0.2835" stroke-linecap="round" stroke-linejoin="round"/>
<path fill-rule="evenodd" clip-rule="evenodd" d="M537.018 36.9153C535.981 38.9079 534.752 40.7996 533.348 42.5649C535.354 43.8777 537.236 45.3631 538.971 47.0033C540.638 45.4274 542.158 43.7096 543.512 41.8703C541.538 39.9934 539.361 38.3319 537.018 36.9153Z" fill="#4FA392" stroke="#9C3340" stroke-width="0.2835" stroke-linecap="round" stroke-linejoin="round"/>
<path fill-rule="evenodd" clip-rule="evenodd" d="M543.512 41.8704C542.158 43.7097 540.638 45.4275 538.971 47.0034C540.638 48.5792 542.157 50.2966 543.512 52.1352C545.177 50.556 546.698 48.839 548.059 47.0034C546.698 45.1669 545.177 43.4494 543.512 41.8704Z" fill="#4FA392" stroke="#9C3340" stroke-width="0.2835" stroke-linecap="round" stroke-linejoin="round"/>
<path fill-rule="evenodd" clip-rule="evenodd" d="M543.512 52.1351C542.157 50.2965 540.638 48.5792 538.971 47.0033C537.235 48.6438 535.352 50.1297 533.345 51.4435C534.749 53.209 535.978 55.1012 537.014 57.0943C539.358 55.6765 541.537 54.0136 543.512 52.1351Z" fill="#4FA392" stroke="#9C3340" stroke-width="0.2835" stroke-linecap="round" stroke-linejoin="round"/>
<path fill-rule="evenodd" clip-rule="evenodd" d="M537.016 57.0943C535.978 55.1015 534.749 53.2095 533.345 51.4435C531.468 52.6729 529.488 53.7452 527.426 54.6489C530.158 56.202 533.255 57.0397 536.416 57.0811C536.618 57.0896 536.817 57.0943 537.016 57.0943Z" fill="#4FA392" stroke="#9C3340" stroke-width="0.2835" stroke-linecap="round" stroke-linejoin="round"/>
<path fill-rule="evenodd" clip-rule="evenodd" d="M543.512 52.1351C541.537 54.0137 539.358 55.6765 537.014 57.0943C539.985 57.1772 542.937 56.588 545.637 55.3729C544.989 54.2572 544.279 53.1763 543.512 52.1351Z" fill="#4FA392" stroke="#9C3340" stroke-width="0.2835" stroke-linecap="round" stroke-linejoin="round"/>
<path fill-rule="evenodd" clip-rule="evenodd" d="M543.512 52.1351C544.279 53.1763 544.989 54.2571 545.637 55.3729C547.625 54.4322 549.456 53.2025 551.067 51.7256C550.18 50.084 549.175 48.5059 548.059 47.0033C546.698 48.8392 545.177 50.5562 543.512 52.1351Z" fill="#4FA392" stroke="#9C3340" stroke-width="0.2835" stroke-linecap="round" stroke-linejoin="round"/>
<path fill-rule="evenodd" clip-rule="evenodd" d="M543.512 41.8703C545.177 43.4493 546.698 45.1668 548.059 47.0033C549.173 45.501 550.178 43.9236 551.065 42.283C549.454 40.8063 547.623 39.5768 545.634 38.6364C544.986 39.7503 544.278 40.8298 543.512 41.8703Z" fill="#4FA392" stroke="#9C3340" stroke-width="0.2835" stroke-linecap="round" stroke-linejoin="round"/>
<path fill-rule="evenodd" clip-rule="evenodd" d="M543.512 41.8704C544.278 40.8299 544.986 39.7504 545.634 38.6364C542.935 37.423 539.986 36.834 537.016 36.9154C539.36 38.3315 541.538 39.993 543.512 41.8704Z" fill="#4FA392" stroke="#9C3340" stroke-width="0.2835" stroke-linecap="round" stroke-linejoin="round"/>
<path fill-rule="evenodd" clip-rule="evenodd" d="M551.065 42.283C550.178 43.9236 549.173 45.501 548.059 47.0033C549.175 48.5058 550.18 50.0839 551.067 51.7256C552.748 50.2303 554.236 48.5813 555.704 47.0051C554.234 45.4282 552.747 43.7805 551.065 42.283Z" fill="#4FA392" stroke="#9C3340" stroke-width="0.2835" stroke-linecap="round" stroke-linejoin="round"/>
<path fill-rule="evenodd" clip-rule="evenodd" d="M571.441 47.0052C570.167 47.5011 569.087 49.4845 567.308 50.828C566.337 51.5058 565.172 51.868 563.979 51.8633C562.785 51.8586 561.623 51.4873 560.658 50.8018C558.917 52.8578 557.033 54.7938 555.019 56.5962C560.029 54.9419 564.397 57.3521 564.109 62.2678C563.168 60.2286 560.372 62.0501 556.816 62.0667C551.593 62.094 550.703 60.2744 546.516 61.9257C554.324 62.9775 556.966 68.1979 553.913 72.8863C554.126 70.4814 550.583 70.6998 547.802 68.8783C544.86 66.9527 544.466 64.7978 541.477 63.8054C540.182 63.3454 538.812 63.1179 537.434 63.1335C544.641 65.8532 548.451 76.368 541.055 80.092C542.668 77.8575 539.08 76.0978 537.425 72.766C535.577 69.0443 536.166 64.74 530.513 62.5887C532.116 64.662 533.053 67.1537 533.203 69.7474C533.353 72.341 532.71 74.9197 531.357 77.1562C526.339 84.16 514.207 81.4342 515.626 71.9172C516.006 74.9751 518.149 75.2233 520.321 75.0442C521.72 74.8115 523.033 74.2244 524.127 73.3417C525.221 72.4589 526.059 71.3113 526.557 70.0135C527.055 68.7156 527.196 67.3129 526.965 65.9455C526.733 64.578 526.139 63.2938 525.24 62.2208C524.008 60.5184 522.521 59.0073 520.826 57.7386C519.663 56.7777 518.611 55.7628 517.605 54.768C517.639 57.9146 513.743 59.5177 511.157 56.0788C514.084 57.6021 517.71 48.7232 505.709 48.5564C505.949 48.0732 506.074 47.5431 506.074 47.0061C506.074 46.469 505.949 45.9389 505.709 45.4557C517.71 45.2885 514.084 36.4099 511.157 37.9332C513.743 34.4943 517.639 36.0963 517.605 39.2428C518.611 38.2488 519.663 37.2356 520.826 36.2732C522.52 35.0045 524.008 33.4935 525.24 31.7913C526.139 30.7183 526.733 29.434 526.965 28.0665C527.196 26.6991 527.055 25.2964 526.557 23.9986C526.059 22.7007 525.221 21.553 524.127 20.6702C523.033 19.7874 521.72 19.2003 520.321 18.9675C518.149 18.7887 516.006 19.0377 515.626 22.0944C514.207 12.5778 526.339 9.85203 531.357 16.8555C532.71 19.0921 533.353 21.6708 533.203 24.2645C533.053 26.8582 532.116 29.3499 530.513 31.4233C536.166 29.2716 535.577 24.9677 537.425 21.246C539.08 17.9126 542.668 16.1543 541.055 13.9201C548.451 17.6441 544.641 28.159 537.434 30.8782C538.812 30.894 540.182 30.6665 541.477 30.2067C544.466 29.2138 544.86 27.0591 547.802 25.1339C550.583 23.3123 554.126 23.5295 553.913 21.1258C556.966 25.8142 554.324 31.0342 546.516 32.0883C550.703 33.7373 551.593 31.9169 556.816 31.9462C560.372 31.9616 563.168 33.7832 564.109 31.7443C564.397 36.66 560.029 39.0702 555.019 37.4154C557.033 39.218 558.917 41.1543 560.658 43.2104C561.623 42.5248 562.785 42.1533 563.979 42.1486C565.172 42.1439 566.337 42.5062 567.308 43.1842C569.087 44.5276 570.167 46.5106 571.441 47.0052ZM559.753 47.0052C558.392 45.5998 557.07 43.8808 556.131 42.8914C553.806 39.9462 550.793 37.5863 547.344 36.0084C543.895 34.4305 540.11 33.6804 536.303 33.8206C533.112 33.8795 529.971 34.6105 527.096 35.9636C524.22 37.3168 521.678 39.26 519.642 41.6607C517.772 43.9238 515.407 45.7503 512.72 47.0064C515.407 48.2622 517.772 50.0883 519.642 52.3513C521.678 54.752 524.22 56.6955 527.096 58.0486C529.971 59.4018 533.112 60.1327 536.303 60.1916C540.11 60.3317 543.895 59.5815 547.344 58.0036C550.793 56.4257 553.806 54.0657 556.131 51.1204C557.07 50.131 558.393 48.4119 559.753 47.0052Z" fill="#9C3340" stroke="#9C3340" stroke-width="0.2835" stroke-linecap="round" stroke-linejoin="round"/>
<path fill-rule="evenodd" clip-rule="evenodd" d="M502.484 50.5177C501.774 50.5176 501.08 50.3119 500.489 49.9268C499.899 49.5416 499.439 48.9942 499.167 48.3537C498.896 47.7133 498.825 47.0086 498.963 46.3287C499.102 45.6488 499.443 45.0243 499.945 44.5341C500.447 44.0438 501.087 43.7101 501.784 43.5748C502.48 43.4394 503.202 43.5087 503.858 43.7739C504.514 44.0391 505.075 44.4882 505.47 45.0646C505.864 45.6409 506.075 46.3185 506.075 47.0117C506.075 47.4721 505.982 47.928 505.802 48.3534C505.622 48.7787 505.357 49.1652 505.024 49.4908C504.69 49.8164 504.294 50.0746 503.858 50.2508C503.422 50.427 502.956 50.5177 502.484 50.5177Z" fill="#4FA392" stroke="#9C3340" stroke-width="0.2835" stroke-linecap="round" stroke-linejoin="round"/>
<path fill-rule="evenodd" clip-rule="evenodd" d="M499.567 44.9598C493.081 44.1276 487.111 40.716 486.693 34.3556C486.568 32.9617 486.733 31.5575 487.177 30.2273C487.621 28.897 488.337 27.668 489.28 26.614C490.222 25.5601 491.373 24.7028 492.663 24.0936C493.954 23.4844 495.357 23.1357 496.788 23.0687C504.517 22.374 507.368 31.2692 502.103 33.7418C497.501 35.7075 493.441 31.1728 496.248 28.7506C492.58 30.9228 493.939 36.3224 498.711 37.9059C500.068 38.3308 501.498 38.489 502.918 38.3711C504.337 38.2533 505.719 37.8617 506.983 37.2192C508.247 36.5768 509.368 35.6961 510.281 34.6281C511.194 33.5601 511.88 32.326 512.302 30.9971C510.413 30.0319 508.878 28.5177 507.909 26.6637C513.043 35.6551 523.098 31.1466 521.021 24.4718C521.094 26.7291 517.653 27.7886 514.749 25.2963C512.286 23.1811 511.74 20.4288 509.264 17.9565C506.85 15.549 503.641 14.0522 500.205 13.7308C498.714 13.5612 497.207 13.576 495.719 13.7748C495.725 15.7888 495.025 17.7441 493.736 19.3161C498.918 12.5219 493.182 5.40821 485.592 8.63101C487.262 8.10665 489.276 9.67589 489.34 12.2718C489.401 14.7619 487.215 16.7791 485.49 19.5805C483.333 23.1186 482.272 27.1904 482.435 31.3043C482.32 34.7784 483.373 38.1939 485.434 41.0283C487.495 43.8628 490.451 45.9602 493.848 46.9997C490.451 48.0393 487.495 50.1369 485.434 52.9714C483.373 55.8059 482.32 59.2215 482.435 62.6957C482.273 66.8095 483.333 70.8814 485.49 74.4195C487.215 77.2204 489.401 79.2378 489.34 81.7278C489.276 84.3237 487.262 85.8929 485.592 85.369C493.182 88.5918 498.918 81.4777 493.736 74.6838C495.025 76.2558 495.725 78.2112 495.719 80.2252C497.207 80.4237 498.714 80.4384 500.205 80.2688C503.641 79.9475 506.85 78.4509 509.264 76.0435C511.74 73.5708 512.286 70.8188 514.749 68.7032C517.653 66.2109 521.094 67.2705 521.021 69.5278C523.098 62.853 513.043 58.3445 507.909 67.3359C508.878 65.4819 510.413 63.9677 512.302 63.0025C511.88 61.6737 511.193 60.4396 510.28 59.3716C509.367 58.3037 508.246 57.4229 506.983 56.7805C505.719 56.138 504.337 55.7466 502.918 55.6287C501.498 55.5108 500.068 55.6689 498.711 56.0937C493.939 57.6776 492.58 63.0768 496.248 65.249C493.441 62.8268 497.501 58.2921 502.103 60.2581C507.368 62.7304 504.517 71.6259 496.788 70.9313C495.357 70.8642 493.954 70.5156 492.663 69.9064C491.373 69.2971 490.222 68.4398 489.28 67.3858C488.337 66.3318 487.622 65.103 487.178 63.7727C486.733 62.4425 486.568 61.0383 486.693 59.6444C487.111 53.284 493.081 49.872 499.567 49.0398C499.132 48.4446 498.897 47.7313 498.897 46.9997C498.897 46.2682 499.132 45.555 499.567 44.9598Z" fill="#9C3340" stroke="#9C3340" stroke-width="0.2835" stroke-linecap="round" stroke-linejoin="round"/>
<path fill-rule="evenodd" clip-rule="evenodd" d="M49.1377 51.1357C46.9197 49.9973 44.8448 48.6111 42.9546 47.0051C44.8448 45.3996 46.9193 44.0132 49.1365 42.8739C50.6235 44.2663 51.9927 45.7176 53.4872 47.0051C51.9938 48.2908 50.6236 49.7433 49.1377 51.1357Z" fill="#4FA392" stroke="#9C3340" stroke-width="0.2835" stroke-linecap="round" stroke-linejoin="round"/>
<path fill-rule="evenodd" clip-rule="evenodd" d="M49.1368 42.8739C46.9196 44.0132 44.8451 45.3995 42.9549 47.0051C41.3773 45.6641 39.9364 44.1771 38.6523 42.5649C40.529 41.3359 42.5087 40.264 44.5702 39.3606C46.2275 40.3539 47.7601 41.533 49.1368 42.8739Z" fill="#4FA392" stroke="#9C3340" stroke-width="0.2835" stroke-linecap="round" stroke-linejoin="round"/>
<path fill-rule="evenodd" clip-rule="evenodd" d="M42.9544 47.0051C44.8446 48.6111 46.9196 49.9973 49.1375 51.1357C47.7615 52.4763 46.2298 53.6554 44.5734 54.6489C42.5114 53.7452 40.5312 52.6729 38.6543 51.4435C39.9379 49.8323 41.378 48.3459 42.9544 47.0051Z" fill="#4FA392" stroke="#9C3340" stroke-width="0.2835" stroke-linecap="round" stroke-linejoin="round"/>
<path fill-rule="evenodd" clip-rule="evenodd" d="M42.9546 47.0052C41.3782 48.346 39.9381 49.8324 38.6545 51.4435C36.6476 50.1297 34.7647 48.6438 33.0283 47.0033C34.7637 45.3632 36.6457 43.8778 38.6521 42.5649C39.9361 44.1771 41.377 45.6641 42.9546 47.0052Z" fill="#4FA392" stroke="#9C3340" stroke-width="0.2835" stroke-linecap="round" stroke-linejoin="round"/>
<path fill-rule="evenodd" clip-rule="evenodd" d="M44.5701 39.3606C42.5085 40.264 40.5288 41.3359 38.6522 42.5649C37.2478 40.7997 36.0189 38.908 34.9819 36.9153C35.1808 36.9164 35.3814 36.9206 35.5839 36.9295C38.7438 36.971 41.839 37.8085 44.5701 39.3606Z" fill="#4FA392" stroke="#9C3340" stroke-width="0.2835" stroke-linecap="round" stroke-linejoin="round"/>
<path fill-rule="evenodd" clip-rule="evenodd" d="M34.9821 36.9153C36.019 38.908 37.248 40.7997 38.6523 42.5649C36.646 43.8777 34.7639 45.3631 33.0286 47.0033C31.3618 45.4273 29.8423 43.7095 28.4878 41.8703C30.462 39.9935 32.6395 38.332 34.9821 36.9153Z" fill="#4FA392" stroke="#9C3340" stroke-width="0.2835" stroke-linecap="round" stroke-linejoin="round"/>
<path fill-rule="evenodd" clip-rule="evenodd" d="M28.4875 41.8704C29.842 43.7096 31.3615 45.4274 33.0283 47.0034C31.362 48.5793 29.8425 50.2967 28.4875 52.1352C26.8232 50.5558 25.3019 48.8388 23.9409 47.0034C25.3013 45.1671 26.8226 43.4496 28.4875 41.8704Z" fill="#4FA392" stroke="#9C3340" stroke-width="0.2835" stroke-linecap="round" stroke-linejoin="round"/>
<path fill-rule="evenodd" clip-rule="evenodd" d="M28.4878 52.1351C29.8428 50.2966 31.3623 48.5793 33.0286 47.0033C34.765 48.6438 36.6478 50.1297 38.6548 51.4435C37.2508 53.209 36.0224 55.1012 34.9864 57.0943C32.6422 55.6764 30.4632 54.0136 28.4878 52.1351Z" fill="#4FA392" stroke="#9C3340" stroke-width="0.2835" stroke-linecap="round" stroke-linejoin="round"/>
<path fill-rule="evenodd" clip-rule="evenodd" d="M34.9839 57.0943C36.0215 55.1015 37.2507 53.2095 38.6546 51.4435C40.5316 52.6729 42.5117 53.7452 44.5737 54.6489C41.8417 56.202 38.7451 57.0397 35.5839 57.0811C35.3822 57.0896 35.1832 57.0943 34.9839 57.0943Z" fill="#4FA392" stroke="#9C3340" stroke-width="0.2835" stroke-linecap="round" stroke-linejoin="round"/>
<path fill-rule="evenodd" clip-rule="evenodd" d="M28.4873 52.1351C30.4628 54.0136 32.6418 55.6765 34.986 57.0943C32.0141 57.1771 29.0628 56.5879 26.3628 55.3729C27.0109 54.2572 27.7202 53.1764 28.4873 52.1351Z" fill="#4FA392" stroke="#9C3340" stroke-width="0.2835" stroke-linecap="round" stroke-linejoin="round"/>
<path fill-rule="evenodd" clip-rule="evenodd" d="M28.4875 52.1351C27.7204 53.1764 27.0111 54.2572 26.363 55.3729C24.3744 54.4322 22.5438 53.2025 20.9331 51.7256C21.8202 50.0841 22.8251 48.506 23.9409 47.0033C25.3016 48.839 26.8229 50.556 28.4875 52.1351Z" fill="#4FA392" stroke="#9C3340" stroke-width="0.2835" stroke-linecap="round" stroke-linejoin="round"/>
<path fill-rule="evenodd" clip-rule="evenodd" d="M28.4878 41.8703C26.8229 43.4495 25.3016 45.167 23.9412 47.0033C22.8267 45.5009 21.8223 43.9235 20.9355 42.283C22.5462 40.8063 24.3771 39.5767 26.3657 38.6364C27.0139 39.7502 27.7223 40.8297 28.4878 41.8703Z" fill="#4FA392" stroke="#9C3340" stroke-width="0.2835" stroke-linecap="round" stroke-linejoin="round"/>
<path fill-rule="evenodd" clip-rule="evenodd" d="M28.4874 41.8704C27.7219 40.8298 27.0135 39.7503 26.3652 38.6364C29.0641 37.423 32.0134 36.834 34.9836 36.9154C32.6401 38.3316 30.4619 39.9931 28.4874 41.8704Z" fill="#4FA392" stroke="#9C3340" stroke-width="0.2835" stroke-linecap="round" stroke-linejoin="round"/>
<path fill-rule="evenodd" clip-rule="evenodd" d="M20.9354 42.283C21.8222 43.9235 22.8266 45.5009 23.9411 47.0033C22.8253 48.5059 21.8203 50.084 20.9333 51.7256C19.2521 50.2303 17.7641 48.5813 16.2964 47.0051C17.7661 45.4282 19.2526 43.7805 20.9354 42.283Z" fill="#4FA392" stroke="#9C3340" stroke-width="0.2835" stroke-linecap="round" stroke-linejoin="round"/>
<path fill-rule="evenodd" clip-rule="evenodd" d="M0.55957 47.0052C1.83233 47.5011 2.91312 49.4845 4.69183 50.828C5.66283 51.5058 6.82799 51.868 8.02172 51.8633C9.21545 51.8586 10.3773 51.4873 11.3427 50.8018C13.083 52.8577 14.9668 54.7938 16.9807 56.5962C11.9713 54.9419 7.60252 57.3521 7.8914 62.2678C8.83226 60.2286 11.628 62.0501 15.1842 62.0667C20.4075 62.094 21.2966 60.2744 25.4839 61.9257C17.6765 62.9775 15.0342 68.1979 18.0873 72.8863C17.8734 70.4814 21.4165 70.6998 24.1976 68.8783C27.1398 66.9527 27.5337 64.7978 30.5228 63.8054C31.8184 63.3454 33.1885 63.1179 34.5669 63.1335C27.359 65.8532 23.549 76.368 30.9456 80.092C29.3326 77.8575 32.9198 76.0978 34.5746 72.766C36.4228 69.0443 35.8345 64.74 41.4871 62.5887C39.8838 64.662 38.9476 67.1537 38.7975 69.7474C38.6473 72.341 39.29 74.9197 40.6438 77.1562C45.661 84.16 57.7934 81.4342 56.3738 71.9172C55.9945 74.9751 53.8512 75.2233 51.6798 75.0442C50.2803 74.8115 48.9679 74.2244 47.8735 73.3417C46.7791 72.4589 45.941 71.3113 45.443 70.0135C44.9451 68.7156 44.8047 67.3129 45.0357 65.9455C45.2667 64.578 45.8611 63.2938 46.7597 62.2208C47.9916 60.5184 49.4799 59.0073 51.174 57.7386C52.3374 56.7777 53.3892 55.7628 54.3948 54.768C54.3612 57.9146 58.2563 59.5177 60.8428 56.0788C57.9165 57.6021 54.2896 48.7232 66.291 48.5564C66.0508 48.0732 65.9261 47.5431 65.9261 47.0061C65.9261 46.469 66.0508 45.9389 66.291 45.4557C54.2896 45.2885 57.9165 36.4099 60.8428 37.9332C58.2563 34.4943 54.3612 36.0963 54.3948 39.2428C53.3892 38.2488 52.3374 37.2356 51.174 36.2732C49.48 35.0045 47.9918 33.4935 46.7597 31.7913C45.8611 30.7183 45.2667 29.4339 45.0357 28.0664C44.8047 26.699 44.9451 25.2963 45.443 23.9984C45.941 22.7006 46.7791 21.553 47.8735 20.6702C48.9679 19.7874 50.2803 19.2002 51.6798 18.9675C53.8512 18.7887 55.9945 19.0377 56.3738 22.0944C57.7934 12.5778 45.661 9.85203 40.6438 16.8555C39.29 19.0921 38.6473 21.6708 38.7975 24.2645C38.9476 26.8582 39.8838 29.3499 41.4871 31.4233C35.8345 29.2716 36.4228 24.9677 34.5746 21.246C32.9198 17.9126 29.3326 16.1543 30.9456 13.9201C23.549 17.6441 27.359 28.159 34.5669 30.8782C33.1885 30.894 31.8184 30.6665 30.5228 30.2067C27.5337 29.2138 27.1398 27.0591 24.1976 25.1339C21.4165 23.3123 17.8734 23.5295 18.0873 21.1258C15.0342 25.8142 17.6765 31.0342 25.4839 32.0883C21.2966 33.7373 20.4075 31.9169 15.1842 31.9462C11.628 31.9616 8.83226 33.7832 7.8914 31.7443C7.60252 36.66 11.9713 39.0702 16.9807 37.4154C14.9669 39.218 13.0831 41.1543 11.3427 43.2104C10.3774 42.5248 9.21547 42.1533 8.02172 42.1486C6.82797 42.1439 5.66279 42.5062 4.69183 43.1842C2.91312 44.5276 1.83233 46.5106 0.55957 47.0052ZM12.2477 47.0052C13.608 45.5998 14.9301 43.8808 15.869 42.8914C18.1943 39.9462 21.207 37.5863 24.656 36.0084C28.1051 34.4305 31.8903 33.6804 35.6966 33.8206C38.8882 33.8795 42.0292 34.6105 44.9047 35.9636C47.7801 37.3168 50.3222 39.26 52.3574 41.6607C54.2283 43.9238 56.5934 45.7502 59.28 47.0064C56.5934 48.2623 54.2282 50.0884 52.3574 52.3513C50.3223 54.752 47.7801 56.6955 44.9047 58.0486C42.0292 59.4018 38.8882 60.1327 35.6966 60.1916C31.8903 60.3317 28.1048 59.5815 24.6558 58.0036C21.2067 56.4257 18.1942 54.0657 15.869 51.1204C14.9303 50.131 13.6082 48.4119 12.2477 47.0052Z" fill="#9C3340" stroke="#9C3340" stroke-width="0.2835" stroke-linecap="round" stroke-linejoin="round"/>
<path fill-rule="evenodd" clip-rule="evenodd" d="M69.5161 50.5177C70.2262 50.5176 70.9204 50.3119 71.5108 49.9268C72.1012 49.5416 72.5612 48.9942 72.8329 48.3537C73.1047 47.7133 73.176 47.0086 73.0374 46.3287C72.8989 45.6488 72.557 45.0243 72.0549 44.5341C71.5528 44.0438 70.913 43.7101 70.2165 43.5748C69.5201 43.4394 68.7982 43.5087 68.1421 43.7739C67.486 44.0391 66.9252 44.4882 66.5306 45.0646C66.136 45.6409 65.9254 46.3185 65.9253 47.0117C65.9252 47.4721 66.018 47.928 66.1984 48.3534C66.3789 48.7788 66.6433 49.1653 66.9767 49.4909C67.3102 49.8165 67.7061 50.0747 68.1418 50.2509C68.5776 50.4271 69.0444 50.5177 69.5161 50.5177Z" fill="#4FA392" stroke="#9C3340" stroke-width="0.2835" stroke-linecap="round" stroke-linejoin="round"/>
<path fill-rule="evenodd" clip-rule="evenodd" d="M72.4326 44.9598C78.9187 44.1276 84.8894 40.716 85.3065 34.3556C85.4315 32.9617 85.267 31.5575 84.8226 30.2273C84.3782 28.897 83.6632 27.6679 82.7205 26.6139C81.7777 25.5599 80.6267 24.7027 79.3364 24.0935C78.046 23.4843 76.643 23.1357 75.2113 23.0687C67.4824 22.374 64.6319 31.2692 69.8966 33.7418C74.4991 35.7075 78.5588 31.1728 75.7516 28.7506C79.4199 30.9228 78.0608 36.3224 73.2886 37.9059C71.9319 38.3308 70.5022 38.489 69.0824 38.3711C67.6627 38.2533 66.281 37.8618 65.0171 37.2194C63.7533 36.5769 62.6325 35.6961 61.7195 34.6281C60.8066 33.5601 60.1196 32.326 59.6983 30.9971C61.5873 30.0319 63.1226 28.5177 64.0917 26.6637C58.9569 35.6551 48.9018 31.1466 50.9793 24.4718C50.9067 26.7291 54.3465 27.7886 57.2508 25.2963C59.7142 23.1811 60.2599 20.4288 62.7356 17.9565C65.1503 15.549 68.3592 14.0523 71.795 13.7308C73.2862 13.5612 74.7933 13.576 76.2808 13.7748C76.2748 15.7888 76.9749 17.7441 78.2645 19.3161C73.0827 12.5219 78.8181 5.40821 86.4073 8.63101C84.7372 8.10665 82.7237 9.67589 82.6598 12.2718C82.5982 14.7619 84.7854 16.7791 86.5104 19.5805C88.6666 23.1186 89.7272 27.1904 89.5645 31.3043C89.6801 34.7784 88.6269 38.1939 86.5658 41.0283C84.5047 43.8628 81.5492 45.9602 78.1515 46.9997C81.5492 48.0393 84.5047 50.1369 86.5658 52.9714C88.6269 55.8059 89.6801 59.2215 89.5645 62.6957C89.7272 66.8095 88.6666 70.8814 86.5104 74.4195C84.7854 77.2204 82.5982 79.2378 82.6598 81.7278C82.7237 84.3237 84.7372 85.8929 86.4073 85.369C78.8181 88.5918 73.0827 81.4777 78.2645 74.6838C76.9748 76.2558 76.2748 78.2112 76.2808 80.2252C74.7933 80.4237 73.2862 80.4384 71.795 80.2688C68.3593 79.9474 65.1504 78.4508 62.7356 76.0435C60.2599 73.5708 59.7142 70.8188 57.2508 68.7032C54.3465 66.2109 50.9067 67.2705 50.9793 69.5278C48.9018 62.853 58.9569 58.3445 64.0917 67.3359C63.1226 65.4819 61.5873 63.9677 59.6983 63.0025C60.1197 61.6737 60.8066 60.4396 61.7195 59.3716C62.6325 58.3036 63.7534 57.423 65.0171 56.7805C66.2809 56.138 67.6627 55.7465 69.0824 55.6286C70.5022 55.5107 71.9319 55.6689 73.2886 56.0937C78.0608 57.6776 79.4199 63.0768 75.7516 65.249C78.5588 62.8268 74.4991 58.2921 69.8966 60.2581C64.6319 62.7304 67.4824 71.6259 75.2113 70.9313C76.643 70.8642 78.046 70.5157 79.3364 69.9065C80.6267 69.2973 81.7777 68.4399 82.7205 67.3859C83.6632 66.3319 84.3782 65.103 84.8226 63.7727C85.267 62.4424 85.4315 61.0383 85.3065 59.6444C84.8894 53.284 78.9187 49.872 72.4326 49.0398C72.8684 48.4446 73.1027 47.7313 73.1027 46.9997C73.1027 46.2682 72.8684 45.555 72.4326 44.9598Z" fill="#9C3340" stroke="#9C3340" stroke-width="0.2835" stroke-linecap="round" stroke-linejoin="round"/>
</g>
<defs>
<clipPath id="clip0_120_25">
<rect width="572" height="94" fill="white"/>
</clipPath>
</defs>
</svg>
