<?xml version="1.0" encoding="UTF-8"?>
<svg id="Layer_2" data-name="Layer 2" xmlns="http://www.w3.org/2000/svg" viewBox="0 0 60.66 60.66">
  <defs>
    <style>
      .cls-1, .cls-2 {
        fill: #9c3340;
      }

      .cls-1, .cls-2, .cls-3 {
        stroke: #171716;
        stroke-linecap: round;
        stroke-linejoin: round;
        stroke-width: .28px;
      }

      .cls-4 {
        fill: none;
        stroke-width: 0px;
      }

      .cls-2, .cls-3 {
        fill-rule: evenodd;
      }

      .cls-3 {
        fill: #9e442a;
      }
    </style>
  </defs>
  <g id="Layer_1-2" data-name="Layer 1">
    <g>
      <g>
        <path class="cls-1" d="m34.33,40.91c-.1,0-.17,0-.24,0-3.74,0-7.49,0-11.23,0-.78,0-1.36-.46-1.5-1.19-.02-.11-.02-.23-.02-.35,0-5.71,0-11.42,0-17.13,0-.94.6-1.55,1.54-1.55,5.71,0,11.42,0,17.13,0,.94,0,1.54.6,1.54,1.54,0,3.74,0,7.47,0,11.21v.25c-.1,0-.19,0-.28,0-1.5,0-3.01,0-4.51,0-1.2,0-2.13.75-2.37,1.88-.04.21-.05.44-.05.65,0,1.46,0,2.91,0,4.37,0,.09,0,.19,0,.32Z"/>
        <path class="cls-1" d="m35.3,40.81c0-1.6-.01-3.23,0-4.86,0-.68.61-1.28,1.29-1.28,1.61-.01,3.23,0,4.84,0,.01,0,.03.01,0,0-2.04,2.04-4.1,4.1-6.15,6.14Z"/>
      </g>
      <path class="cls-2" d="m15.28,15.27h8.82l6.24-6.24,6.24,6.24h8.82v8.82l6.24,6.24-6.24,6.24v8.82h-8.82l-6.24,6.24-6.24-6.24h-8.82v-8.82l-6.24-6.24,6.24-6.24v-8.82Zm-8.87,15.05l7.01,7.01v9.91h9.91l7.01,7,7.01-7h9.91v-9.91l7.01-7.01-7.01-7.01v-9.91h-9.91l-7.01-7.01-7.01,7.01h-9.91v9.91l-7.01,7Z"/>
      <path class="cls-3" d="m10.84,10.84h11.42L30.33,2.77l8.07,8.07h11.42v11.42l8.07,8.07-8.07,8.07v11.41h-11.42l-8.07,8.07-8.07-8.07h-11.42v-11.42L2.77,30.33l8.07-8.07v-11.41Zm-1.86-1.86v12.51L.14,30.33l8.84,8.84v12.51h12.51l8.84,8.84,8.84-8.84h12.5v-12.51l8.84-8.84-8.84-8.84v-12.5h-12.5L30.33.14l-8.84,8.84h-12.51Z"/>
      <rect class="cls-4" x="11.92" y="13.35" width="39.05" height="36.31"/>
    </g>
  </g>
</svg>