<?xml version="1.0" encoding="UTF-8"?>
<svg id="Layer_2" data-name="Layer 2" xmlns="http://www.w3.org/2000/svg" viewBox="0 0 60.66 60.66">
  <defs>
    <style>
      .cls-1, .cls-2 {
        fill: #9c3340;
      }

      .cls-1, .cls-2, .cls-3 {
        stroke: #171716;
        stroke-linecap: round;
        stroke-linejoin: round;
        stroke-width: .28px;
      }

      .cls-4 {
        fill: none;
        stroke-width: 0px;
      }

      .cls-2, .cls-3 {
        fill-rule: evenodd;
      }

      .cls-3 {
        fill: #9e442a;
      }
    </style>
  </defs>
  <g id="Layer_1-2" data-name="Layer 1">
    <g>
      <g>
        <path class="cls-1" d="m30.93,32.19c-1.15-1.01-2.44-1.44-3.9-1.46-2.12-.03-4.11-.62-6.06-1.38-.35-.13-.43-.33-.32-.69.71-2.33,1.43-4.66,2.15-6.98.15-.47.37-.58.82-.38,1.27.56,2.59.79,3.97.74,1.13-.04,2.17.25,3.16.8.15.08.2.17.2.34,0,2.94,0,5.88,0,8.82,0,.05,0,.1-.01.2Z"/>
        <path class="cls-1" d="m31.94,32.21c0-.17,0-.26,0-.35,0-2.87,0-5.73,0-8.6,0-.22.06-.35.26-.46.94-.51,1.94-.79,3.01-.76,1.43.05,2.81-.17,4.12-.77.35-.16.61-.04.72.33.74,2.37,1.47,4.73,2.19,7.1.1.32,0,.52-.31.65-1.87.74-3.78,1.33-5.81,1.37-1.55.03-2.95.38-4.18,1.49Z"/>
        <path class="cls-1" d="m21.84,21.44c-.47,1.52-.93,3-1.38,4.49-.25.81-.51,1.62-.75,2.44-.26.87.06,1.58.91,1.91,2.1.84,4.27,1.43,6.55,1.46,1.24.02,2.31.45,3.21,1.3.68.64,1.5.63,2.19-.03.67-.65,1.46-1.07,2.38-1.2.5-.07,1.01-.06,1.52-.09,2.08-.14,4.06-.7,5.97-1.5.73-.31,1.01-1.04.76-1.85-.68-2.21-1.36-4.42-2.04-6.63-.03-.09-.05-.18-.08-.29.29-.12.58-.25.87-.35.31-.1.54.06.66.44.27.87.54,1.74.81,2.61.63,2.04,1.26,4.08,1.89,6.12.19.61.1.78-.51.95-3.73,1.06-7.46,2.12-11.19,3.17-.38.11-.65.31-.77.69-.08.28-.27.4-.56.4-.54,0-1.08,0-1.62,0-.3,0-.51-.1-.61-.41-.12-.39-.4-.59-.8-.7-3.71-1.04-7.42-2.1-11.13-3.14-.63-.18-.72-.33-.52-.96.9-2.89,1.79-5.78,2.69-8.67.16-.52.38-.62.89-.41.21.09.42.17.66.27Z"/>
        <path class="cls-1" d="m25.02,34.2c1.34.38,2.64.75,3.93,1.12.06.02.15.06.17.12.17.5.52.8,1.03,1-.1.07-.17.13-.25.17-2.12,1.31-4.23,2.62-6.36,3.92-.18.11-.42.19-.64.19-.39,0-.69-.33-.72-.73-.02-.3,0-.6.01-.9.03-.38.2-.68.49-.94.68-.63,1.34-1.28,2.01-1.9.23-.21.35-.44.33-.76-.02-.41,0-.83,0-1.29Z"/>
        <path class="cls-1" d="m32.72,36.44c.52-.19.84-.49,1.03-.94.03-.08.13-.16.22-.18,1.28-.37,2.57-.73,3.91-1.11,0,.44.01.86,0,1.28-.01.32.09.55.33.76.67.62,1.31,1.27,1.99,1.88.36.33.52.71.53,1.18,0,.16,0,.31,0,.47.01.37-.1.68-.44.87-.33.18-.63.09-.94-.09-1.65-1.02-3.3-2.04-4.94-3.06-.54-.34-1.09-.67-1.69-1.04Z"/>
      </g>
      <path class="cls-2" d="m15.28,15.27h8.82l6.24-6.24,6.24,6.24h8.82v8.82l6.24,6.24-6.24,6.24v8.82h-8.82l-6.24,6.24-6.24-6.24h-8.82v-8.82l-6.24-6.24,6.24-6.24v-8.82Zm-8.87,15.05l7.01,7.01v9.91h9.91l7.01,7,7.01-7h9.91v-9.91l7.01-7.01-7.01-7.01v-9.91h-9.91l-7.01-7.01-7.01,7.01h-9.91v9.91l-7.01,7Z"/>
      <path class="cls-3" d="m10.84,10.84h11.42L30.33,2.77l8.07,8.07h11.42v11.42l8.07,8.07-8.07,8.07v11.41h-11.42l-8.07,8.07-8.07-8.07h-11.42v-11.42L2.77,30.33l8.07-8.07v-11.41Zm-1.86-1.86v12.51L.14,30.33l8.84,8.84v12.51h12.51l8.84,8.84,8.84-8.84h12.5v-12.51l8.84-8.84-8.84-8.84v-12.5h-12.5L30.33.14l-8.84,8.84h-12.51Z"/>
      <rect class="cls-4" x="11.92" y="13.35" width="39.05" height="36.31"/>
    </g>
  </g>
</svg>